<?xml version="1.0" encoding="UTF-8" standalone="no"?>
<svg
   version="1.0"
   width="1024px"
   height="1024px"
   viewBox="0 0 1024 1024"
   preserveAspectRatio="xMidYMid meet"
   id="svg168"
   sodipodi:docname="FreeSample-Vectorizer-io-icone v02.svg"
   inkscape:version="1.4.4 (dcaf3e7d9e, 2026-05-05)"
   xmlns:inkscape="http://www.inkscape.org/namespaces/inkscape"
   xmlns:sodipodi="http://sodipodi.sourceforge.net/DTD/sodipodi-0.dtd"
   xmlns="http://www.w3.org/2000/svg"
   xmlns:svg="http://www.w3.org/2000/svg">
  <defs
     id="defs168" />
  <sodipodi:namedview
     id="namedview168"
     pagecolor="#ffffff"
     bordercolor="#000000"
     borderopacity="0.25"
     inkscape:showpageshadow="2"
     inkscape:pageopacity="0.0"
     inkscape:pagecheckerboard="0"
     inkscape:deskcolor="#d1d1d1"
     showgrid="false"
     inkscape:zoom="1.4142136"
     inkscape:cx="455.37677"
     inkscape:cy="644.52783"
     inkscape:window-width="2494"
     inkscape:window-height="1371"
     inkscape:window-x="66"
     inkscape:window-y="32"
     inkscape:window-maximized="1"
     inkscape:current-layer="svg168" />
  <g
     fill="#ffffff"
     id="g5"
     style="display:inline"
     inkscape:label="Blanc">
    <path
       d="m 167,994.9 c -27,-2 -54,-11.7 -76.3,-27.6 -10.4,-7.4 -26.6,-23.6 -34,-34 C 40.4,910.4 31.1,884.3 29,855.5 27.6,836.2 27.6,186.4 29,168 31.8,130.6 46.4,98.7 72.5,72.5 84.3,60.8 94.9,53 109.2,45.5 127.6,35.9 146.7,30.6 169,29 c 16.6,-1.2 669.4,-1.2 686,0 22.3,1.6 41.4,6.9 59.8,16.5 14.3,7.5 24.9,15.3 36.7,27 26.1,26.2 40.7,58.1 43.5,95.5 1.4,18.6 1.4,669.4 0,688 -2.8,37.4 -17.4,69.3 -43.5,95.5 -11.8,11.7 -22.4,19.5 -36.7,27 -18.4,9.6 -37.5,14.9 -59.8,16.5 -15.2,1.1 -672.9,1.1 -688,-0.1 z m 548.5,-85.8 c 14.9,-0.6 39.4,-1.5 54.5,-2.1 40.5,-1.5 100.1,-5 130,-7.5 27.4,-2.4 55.2,-6.5 59.5,-8.8 1.9,-1 1.9,-1 -0.2,-1.8 -8.4,-3.1 -59.2,-9.3 -94.5,-11.5 L 854,876.7 v -3.2 c 0,-1.8 0.7,-3.8 1.5,-4.5 0.8,-0.7 1.5,-2.1 1.5,-3.1 0,-2.1 5,-5.9 7.9,-5.9 1.1,0 4.3,-1.9 7,-4.2 4.2,-3.6 5,-4.9 5,-7.9 0.1,-3.9 1.9,-6.1 6.3,-7.8 3.5,-1.3 7.8,-9.6 7.8,-15 0,-5.1 1.6,-8.6 4.6,-9.9 3.2,-1.5 5,-8.3 3.4,-13.2 -0.7,-2 -1,-4.7 -0.8,-6.1 l 0.3,-2.4 24,-0.5 24,-0.5 0.3,-6.7 0.3,-6.8 h -9.6 -9.5 l 0.2,-25.7 0.3,-25.8 8.8,-2.8 8.7,-2.9 v -5.6 -5.7 h -5.7 -5.8 l -0.3,-7.7 -0.3,-7.8 h 5.6 c 3.6,0 5.6,0.4 5.7,1.3 0.1,0.6 0.5,-7.8 0.8,-18.8 l 0.5,-20 2.5,-0.3 c 1.4,-0.1 4,-0.5 5.8,-0.8 l 3.3,-0.5 -0.3,-6.7 -0.3,-6.7 -4.2,-0.3 c -3.4,-0.3 -4.3,-0.7 -4.3,-2.2 0,-1.7 -0.9,-1.9 -6.7,-2.2 l -6.8,-0.3 -0.3,-8.7 -0.3,-8.8 H 920 c -14.3,0 -15,-0.1 -15,-2 0,-2 -0.7,-2 -33,-2 -32.5,0 -33,0 -33,2 0,2 -0.5,2.1 -10.2,1.8 l -10.2,-0.3 -4,-12.5 c -3.5,-11.2 -4,-13.9 -4.4,-25.2 L 809.8,569 H 807 c -3.3,0 -2.7,1.4 -9.5,-22 -8.7,-30.2 -9.8,-33.4 -11.2,-35.1 -0.7,-0.8 -1.3,-2.5 -1.3,-3.7 0,-1.1 -0.7,-2.8 -1.7,-3.7 -1.5,-1.5 -7.4,-1.6 -68.4,-1.3 -48.5,0.2 -67.1,0.6 -67.9,1.4 -1.3,1.3 -16.4,47.6 -18.5,56.9 -0.8,3.3 -2.5,8.9 -3.8,12.5 -2.5,6.6 -7.5,30.1 -8.4,39.8 -0.3,2.9 -0.9,5.5 -1.4,5.8 -0.5,0.3 -0.9,1.4 -0.9,2.5 0,1.1 -1,4.9 -2.2,8.5 -2.2,6.1 -2.4,6.4 -5.5,6.4 -2.8,0 -3.3,0.3 -3.3,2.5 0,2.4 0,2.4 -11.7,2.7 l -11.8,0.3 -2.6,6.5 -2.6,6.5 25.4,0.3 25.3,0.2 v 5.9 c 0,3.2 0.7,7.5 1.5,9.5 1.2,2.7 1.5,6.5 1.3,14.4 l -0.3,10.7 -5.1,0.5 c -5.2,0.5 -7.9,1.9 -12.8,6.5 -2.8,2.5 -3.4,2.7 -9,2.2 -7.2,-0.7 -42.1,-5.5 -45.3,-6.2 -1.8,-0.4 -2.7,-2 -4.3,-7.8 -1.2,-3.9 -5.1,-15.7 -8.7,-26.2 -3.6,-10.4 -6.8,-20.4 -7.2,-22 -0.5,-1.7 -1.4,-4.1 -2.1,-5.4 -0.8,-1.5 -1,-4.1 -0.6,-7.1 0.6,-4.1 -0.6,-8.2 -10.5,-37.6 -7.6,-22.3 -11.4,-35.2 -12,-39.9 -0.4,-3.8 -1,-9.1 -1.4,-11.7 l -0.8,-4.8 h 8.4 c 7.4,0 9,-0.4 13.4,-2.9 8.5,-4.9 10.5,-7.3 10.5,-12.8 0.1,-7 2.7,-8.6 15,-9.3 5.2,-0.3 10.2,-1 11.1,-1.5 0.8,-0.6 3.7,-2.5 6.2,-4.4 4.7,-3.4 4.8,-3.6 4.1,-7.7 -1.3,-8.6 2.2,-11.4 14,-11.4 7.3,0 7.9,-0.2 14.4,-4.4 7.2,-4.6 8.6,-6.3 7.1,-8.7 -0.5,-0.8 -0.9,-2.8 -0.9,-4.6 0,-2.8 1,-4 7.9,-9.5 4.3,-3.5 8.8,-7.7 10,-9.4 l 2.2,-3.1 -3,-7.4 c -1.6,-4.1 -7.3,-16.8 -12.6,-28.4 -5.3,-11.5 -12.7,-28 -16.5,-36.5 -3.7,-8.5 -9.8,-22.2 -13.5,-30.5 -3.7,-8.2 -10.2,-22.9 -14.5,-32.5 -4.3,-9.6 -11.5,-25.6 -16,-35.5 -4.5,-9.9 -11.8,-26.1 -16.3,-36 l -8.2,-18 v -9.6 -9.6 l 4.2,-5.4 c 2.3,-3 8.4,-10.6 13.5,-17 5.1,-6.4 13.3,-16.8 18.3,-23 18,-23 28.1,-35.6 34.7,-43.5 l 6.7,-8.1 -5.2,-5 c -2.9,-2.7 -7.1,-6.4 -9.4,-8.2 l -4.2,-3.4 -39.3,0.5 -39.2,0.5 -3.4,3.9 c -5.8,6.8 -80.4,100.6 -89,111.9 -7.8,10.2 -8.3,11.2 -7.7,14.5 0.4,1.9 1.5,8.7 2.6,15 1,6.3 3.2,19.4 4.8,29 1.7,9.6 3.1,20.2 3.1,23.5 v 5.9 l -5.7,5.3 c -5,4.7 -6.2,5.3 -9.9,5.3 h -4.2 l -2.3,-6.8 c -3.4,-10.4 -8.5,-20.8 -13.3,-27.6 -9.6,-13.5 -22.6,-24 -33.5,-27.3 -9.5,-2.9 -25.2,-1.3 -27.1,2.7 -0.4,0.8 -1.5,6 -2.3,11.5 -5.6,35.6 -27.1,84.9 -51.6,118 l -5.9,8 5.6,1.2 c 5.3,1.1 26.3,3.1 37.7,3.6 l 5,0.2 0.3,3.9 c 0.3,3.6 -0.1,4.4 -6,10.3 -6.2,6.2 -6.3,6.3 -11.8,6.3 -5.6,0 -23.7,-2 -36.5,-4.1 -11.2,-1.8 -40.4,-9.3 -47.8,-12.4 -1.7,-0.7 -1.8,-0.4 -1.2,3.1 4.1,23.7 9.6,43.8 17.5,63.1 6.3,15.3 6.7,14.2 -11.7,32.6 -13.9,13.8 -16.2,15.7 -19,15.7 -3.1,0 -3.3,-0.2 -3.3,-3.3 0,-2.8 1.4,-4.6 9.4,-12.6 l 9.5,-9.4 -2.4,-4.8 c -3.3,-6.4 -10.6,-28.5 -15,-45 -6.1,-23.5 -8.6,-40.7 -9.3,-65.6 l -0.7,-22.2 -8,4.1 c -10.8,5.4 -40.7,25.3 -51.3,34.2 -22.2,18.5 -34.5,37.1 -34.4,52.1 0.2,24.1 27.2,55.8 59,69.5 10.1,4.3 18.7,6.6 29,7.5 l 7.2,0.7 v 3.2 c 0,2.8 -1.8,4.9 -13.8,16.6 -14.2,13.9 -52.4,51.4 -79,77.4 -8.4,8.2 -15.5,15.9 -15.8,17.2 -0.4,1.6 1,4.9 4.9,11.6 3,5.1 9.6,17 14.7,26.3 12.3,22.7 15.9,28.2 19.5,29.9 2.6,1.3 8.1,1.3 36.5,0.5 18.4,-0.5 41.6,-1.3 51.4,-1.9 9.9,-0.5 18,-0.9 18.1,-0.7 0.1,0.1 1.5,2.5 3.2,5.2 9,14.8 9.6,16.2 8.8,22.2 -0.8,6.2 -5,12.7 -8.9,13.7 -3.5,0.9 -6.9,7.4 -7.7,14.4 -0.6,5.6 -1.1,6.7 -4.3,9.7 -2,1.8 -3.6,4.1 -3.7,5.1 -0.1,1.1 -0.2,6 -0.3,10.9 -0.1,6.7 -0.6,9.6 -1.9,11.5 -2.3,3.3 -2.2,8.5 0.4,12 1.9,2.5 2.1,3.8 1.7,10.6 -0.6,9 0.7,14.2 3.9,15.7 2.6,1.2 4.3,5.5 4.3,11.2 0,5.6 4.8,13.3 8.8,14.1 3.1,0.6 6.2,4.8 6.2,8.5 0,1.2 1.6,4.1 3.5,6.5 2.7,3.3 3.5,5.1 3.5,8.3 v 4.1 h -4.9 c -8.7,0 -63,4 -83.6,6.1 -27.2,2.8 -48.1,6.6 -46.4,8.4 0.2,0.2 5.1,1.3 10.9,2.4 38.9,7.6 152.9,14.6 281.5,17.1 52.5,1 282.5,0.4 317,-0.9 z M 94.2,379.5 c 1.1,-1.4 7.3,-7 13.8,-12.5 29.9,-25.2 72.1,-48.8 104.5,-58.5 5,-1.5 9.4,-3 9.8,-3.5 2,-1.8 -29,-28.4 -48.8,-41.8 -9.9,-6.6 -29.5,-16.8 -37,-19.2 -19.4,-6.2 -38.8,1.7 -55.1,22.4 -11,13.9 -18.6,31.2 -21.9,50 -1.9,11.1 -1.9,15.7 0.1,25.4 3.3,16.6 13.2,31 25.7,37.2 3.3,1.6 6.2,3 6.5,3 0.2,0 1.3,-1.1 2.4,-2.5 z m 185.1,-63.3 c 6.3,-13 16.6,-41 19.6,-53 3.2,-12.5 5.4,-30 4.7,-37.2 -2,-21.9 -15.7,-36.7 -42.6,-46.1 -5.6,-2 -9,-2.3 -24,-2.7 -17.4,-0.4 -19.4,-0.1 -35,3.7 -2.5,0.7 -5.7,2.1 -7.2,3.1 -1.5,1.1 -3.4,2 -4.3,2 -2.7,0 -8.8,3.8 -16.3,10.2 -5.8,4.9 -8,7.6 -10.8,13.3 -4.2,8.6 -6,18.2 -3.5,19.6 0.9,0.5 5.6,2.9 10.4,5.3 30.8,15.5 75.3,55.1 96.6,85.9 2.9,4.2 5.7,7.7 6.1,7.7 0.4,0 3.2,-5.3 6.3,-11.8 z"
       id="path1" />
    <path
       d="m 456,866.5 c 0,-2.4 0.7,-3.9 2.6,-5.4 1.5,-1.2 3.2,-2.1 3.8,-2.1 0.6,0 3,-1.9 5.4,-4.1 3.1,-3 4.2,-4.8 4.2,-7 0,-3 2,-5.5 7.4,-9.2 3.4,-2.3 6.6,-8.7 6.6,-13 0,-4.8 1.9,-9.5 4,-10.2 1,-0.3 2.6,-2.5 3.5,-4.9 l 1.7,-4.3 32.6,-0.5 c 18,-0.3 33.3,-0.3 34,-0.1 0.6,0.3 1.2,2.2 1.2,4.2 0,5.2 2.8,12.9 5.1,14.2 2.4,1.3 4.9,7.1 4.9,11.7 0,4.1 4.6,11.9 7.5,12.8 2.9,0.9 6.4,5.5 6.5,8.4 0,1.4 0.7,3.4 1.5,4.4 0.8,1.1 1.5,3.4 1.5,5.2 v 3.2 h -67 l -67,0.1 z"
       id="path2" />
    <path
       d="m 810,710 c -1.3,-2.4 -1.3,-10.6 0,-13.1 1,-1.7 2.2,-1.9 11,-1.9 11.4,0 12,0.4 12,8.5 0,8 -0.6,8.4 -12,8.4 -8.7,0 -10.1,-0.2 -11,-1.9 z"
       id="path3" />
    <path
       d="m 512.1,693.9 c -11.2,-1.5 -20.8,-3.2 -21.3,-3.7 -0.5,-0.5 -1.3,-2.5 -1.8,-4.3 -0.5,-1.9 -3.8,-12.1 -7.4,-22.8 -5.2,-15.2 -6.5,-20.5 -6.5,-25 0.1,-4.5 -1.4,-10.1 -7.5,-28.1 -6.9,-20.4 -8.9,-29 -6.8,-29 0.4,0 2.2,-1.4 4,-3.1 3,-2.9 3.2,-3.3 1.8,-4.8 -2.1,-2.3 -2,-7.4 0.2,-9.4 1.5,-1.4 18.5,-3.6 27.8,-3.7 1.8,0 2.6,1.7 5.9,12.3 9.7,31.3 19.9,59.2 22.5,61.7 1.8,1.8 3.8,6.1 6.4,14.5 2.1,6.6 6,18.8 8.7,27 2.7,8.3 4.9,16.5 4.9,18.3 v 3.2 l -5.2,-0.1 c -2.9,-0.1 -14.5,-1.4 -25.7,-3 z"
       id="path4" />
    <path
       d="m 456,686.5 c -8.5,-1.2 -31.9,-4.3 -52,-7 -20.1,-2.6 -37,-4.9 -37.7,-5.1 -0.7,-0.2 -3.5,-4.8 -6.3,-10.3 -7.3,-14.6 -6.9,-19.5 2,-24.2 1.4,-0.7 6.2,-1.5 10.7,-1.9 7.8,-0.6 8.5,-0.9 15,-5.6 6.7,-4.9 6.8,-5.1 7.1,-9.9 0.5,-7.8 2.7,-9.5 12.3,-9.5 7.5,0 7.8,-0.1 14.5,-4.6 9.7,-6.6 10.1,-7 8.6,-9.4 -0.6,-1.1 -1.2,-3.5 -1.2,-5.4 0,-4.9 3.3,-6.8 11.1,-6.4 l 6.1,0.3 6.4,20 c 8.7,27 11.3,33.7 13.4,34.2 2.2,0.6 14.1,36.9 14,43.1 v 4.2 l -4.2,-0.1 c -2.4,-0.1 -11.3,-1.1 -19.8,-2.4 z"
       id="path5" />
  </g>
  <g
     fill="#f875b5"
     id="g6"
     style="display:inline"
     inkscape:label="Rose">
    <path
       d="m 83.5,382.5 c -21.8,-10.6 -32.4,-37.8 -27,-69.1 5.3,-30.3 21.9,-56.6 43.6,-69.1 10.7,-6.1 25.9,-7.5 38.9,-3.5 20.3,6.4 55.1,29.6 78.4,52.3 6.8,6.7 11.7,12.2 11.4,13 -0.2,0.7 -6.3,3.2 -13.4,5.5 -28,8.9 -51.8,21 -81.7,41.1 -12.1,8.1 -33.5,25.8 -36.9,30.4 -2.8,3.7 -4.7,3.6 -13.3,-0.6 z"
       id="path6" />
  </g>
  <g
     fill="#91b1c6"
     id="g11"
     style="display:inline"
     inkscape:label="Bleu/gris">
    <path
       d="M 395.5,913 C 227.2,909.7 95.1,899.3 98.3,889.7 c 1.1,-3.5 19.8,-7.4 51.2,-10.6 20.6,-2.1 74.9,-6.1 83.6,-6.1 5.1,0 6.2,-1.2 3.7,-3.9 -1.1,-1.1 -0.2,-1.2 4.6,-0.6 6.6,0.8 12,4 13,7.8 0.6,2.5 7.5,7.3 11.5,8.1 1.4,0.3 4.7,0.7 7.2,1.1 3.5,0.4 4.9,1.2 5.9,3 1.8,3.3 6.4,4.5 17.8,4.5 5,0 9.2,0.4 9.2,0.8 0,1.5 4.9,3.2 8.9,3.2 2.5,0 4.4,-0.7 5.6,-2 1.6,-1.8 3,-2 10.9,-1.9 10.2,0.1 13.5,-0.8 17.6,-4.9 2.6,-2.7 3.6,-2.9 16.7,-4.1 13.3,-1.2 14.1,-1.2 19.8,0.8 6.9,2.4 10,2.6 13.5,0.6 1.5,-0.9 5.4,-1.4 9.8,-1.5 7.4,0 15,-2 22.7,-6 2.1,-1.1 4.5,-2 5.3,-2 2.9,0 14.2,-7.2 15.4,-9.8 1.1,-2.2 2.1,-2.8 5.8,-3 4.4,-0.3 4.4,-0.3 2.6,1.7 -1.8,1.9 -1.6,1.9 62.3,1.9 61.9,-0.1 64,-0.2 63,-2 -0.8,-1.5 -0.6,-1.8 1.9,-1.8 1.9,0 3.9,1.1 6.2,3.5 2.1,2.2 4.4,3.5 5.9,3.5 2.9,0.1 7.7,3.8 8.3,6.5 0.5,2.7 11.1,8.1 17.1,8.8 3.9,0.5 5.7,1.3 7.2,3.1 3,3.6 7.1,4.9 16,4.7 5.4,-0.1 8.9,0.4 10.9,1.4 4.9,2.6 10.2,3 13.3,0.9 2.1,-1.4 5,-1.8 11.8,-2 8.8,-0.2 16.5,-2.2 16.5,-4.2 0,-1.4 6.4,-4.2 9.4,-4.2 1.5,0 5.5,-1.3 9,-2.9 5,-2.2 6.5,-3.5 7.4,-5.9 0.6,-1.7 2.4,-3.7 4.1,-4.6 4.2,-2.2 12.3,-2 17.1,0.4 2.2,1.1 5.1,2 6.5,2 3,0 7.5,2.1 9.4,4.4 2,2.4 13.5,5.6 20,5.6 3.1,0 6.1,0.4 6.7,1 2.2,2.2 10,2.3 16,0.2 3.6,-1.3 8.2,-2.1 11.9,-2.1 7.1,0.1 11.2,-1.3 14,-4.7 1.5,-1.9 3.3,-2.6 7.5,-3.1 3,-0.3 7.3,-1.4 9.4,-2.4 4.8,-2.3 10.5,-2.6 8.7,-0.5 -0.9,1.1 0.7,1.4 9.6,2 44,2.8 92,9.2 97.9,13.1 3.3,2.1 3,3.1 -1.3,5.4 -12.6,6.4 -89.6,13.3 -191.3,17.1 -15.1,0.6 -39.6,1.5 -54.5,2.1 -34.4,1.3 -270.2,1.9 -323,0.9 z"
       id="path7" />
    <path
       d="m 484.2,716.3 c -2.2,-6.5 -5,-14.9 -6.2,-18.8 -1.2,-3.8 -2.6,-7.4 -3.1,-8 -1.4,-1.4 -1,-3.5 0.6,-3.5 0.8,0 1.5,-0.6 1.5,-1.2 0,-0.7 -2.7,-9.9 -6.1,-20.5 -4.7,-14.6 -6.7,-19.3 -8.1,-19.6 -3.3,-0.9 -1.9,-3.2 3.7,-6 8.2,-4 16.8,-3.4 12.5,0.9 -0.7,0.7 1.1,7.4 5.6,20.5 3.6,10.7 6.9,20.8 7.3,22.5 1.1,4.3 1.9,5.4 4,5.4 1.3,0 2.8,3.4 6.9,16.3 2.9,8.9 5.2,17.9 5.2,20 v 3.7 h -9.9 -9.8 z"
       id="path8" />
    <path
       d="m 539.8,697.3 c -3.3,-0.5 -4.7,-3.3 -1.7,-3.3 1.3,0 1.9,-0.5 1.6,-1.3 -2.1,-5.5 -11.6,-36 -12.1,-38.7 -0.8,-4.7 1.1,-8.2 5.4,-9.7 1.9,-0.7 2.8,-1.2 1.9,-1.2 -0.9,-0.1 -2.2,-1.4 -2.9,-3.1 -0.7,-1.6 -1.6,-3 -2.1,-3 -0.5,0 -0.9,-1.6 -0.9,-3.5 0,-3.4 0.1,-3.5 4,-3.5 3.6,0 4,0.2 3.1,1.8 -0.6,1.1 -0.6,2.4 0.1,3.6 0.6,1.1 1.4,3.3 1.9,5 0.4,1.7 3.3,10.5 6.5,19.6 3.1,9.1 6.9,20.7 8.5,25.8 1.5,5.3 3.5,10 4.6,10.7 1.6,1.3 0.8,1.4 -6.7,1.3 -4.7,0 -9.7,-0.3 -11.2,-0.5 z"
       id="path9" />
    <path
       d="m 660,570 c 0,-2.2 0.4,-5.9 1,-8.2 1.4,-6.3 9,-39.5 10.4,-45.3 l 1.2,-5 32.8,-0.3 c 21.6,-0.1 33.3,0.1 34.1,0.8 0.7,0.6 1.5,2.5 1.9,4.3 0.7,4.1 9.5,41.3 10.7,45.3 0.5,1.7 0.9,5.1 0.9,7.7 V 574 H 706.5 660 Z"
       id="path10" />
    <path
       d="m 759.7,573.3 c -0.3,-0.5 -0.8,-3 -1.2,-5.8 -0.4,-2.7 -1.1,-5.5 -1.6,-6.1 C 755.4,559.5 746,519.7 746,515.3 V 511 h 22 c 21.9,0 22,0 23,2.2 0.6,1.3 3,9.3 5.5,17.8 2.4,8.5 5.8,20 7.4,25.5 1.7,5.5 3.1,11.7 3.1,13.8 v 3.7 h -23.4 c -12.9,0 -23.7,-0.3 -23.9,-0.7 z"
       id="path11" />
    <path
       d="m 525.5,648.3 c -1.5,-4.9 -3.4,-9.3 -4.2,-9.9 -2.3,-2 -1.4,-4.4 2.2,-6 3.9,-1.6 12.5,-1.9 12.5,-0.4 0,0.6 -0.9,1 -2.1,1 -1.9,0 -1.9,0.1 -0.5,1.6 0.9,0.8 1.6,1.9 1.6,2.4 0,0.5 0.7,1.5 1.5,2.4 0.8,0.8 1.8,2.9 2.1,4.5 0.5,2.6 0.3,3.1 -1.3,3.1 -3.1,0 -6.2,2.9 -6.9,6.5 -0.3,1.9 -0.9,3.5 -1.3,3.5 -0.4,0 -2,-3.9 -3.6,-8.7 z"
       id="path54"
       style="display:inline" />
  </g>
  <g
     fill="#f6cc43"
     id="g35"
     style="display:inline"
     inkscape:label="Jaune clair">
    <path
       d="m 653.3,853 c -12.7,-2.3 -24.2,-8.8 -33.8,-19.1 -7,-7.6 -12.8,-18.3 -12.3,-23.2 0.3,-3.1 0.4,-3.2 5.4,-3.5 4.9,-0.3 5.2,-0.2 6.2,2.7 1.5,4.1 8.3,13.9 12.6,18 2,1.9 3.6,4.2 3.6,5.1 0,2.4 7.2,6.7 16,9.7 5.7,2 10.2,2.7 18.7,3.1 10.9,0.4 11.3,0.4 13.3,-1.9 1,-1.3 1.9,-3 2,-3.6 0,-0.7 1.9,-2.2 4.3,-3.4 2.3,-1.2 6.5,-3.9 9.3,-6 4.9,-3.8 11.4,-5.4 11.4,-2.9 0,0.6 0.7,1 1.5,1 1,0 1.5,1 1.5,3.4 0,7.2 -17.2,18.6 -27.9,18.6 -1.6,0 -3.1,0.5 -3.3,1.1 -0.5,1.4 -21.8,2.1 -28.5,0.9 z"
       id="path12" />
    <path
       d="m 280,845.3 c -3.5,-2.1 -8.9,-6.3 -12,-9.3 -9.9,-9.9 -15.3,-23.9 -9.7,-25.4 5.4,-1.4 7.1,-0.8 9.6,3.9 1.3,2.4 3.9,6.2 5.7,8.4 1.9,2.1 3.4,4.9 3.4,6 0,2.2 4.8,6.2 13.2,10.9 4.2,2.4 4.8,3.1 4.8,6 0,3.1 -0.1,3.2 -4.3,3.2 -3.1,0 -6,-1 -10.7,-3.7 z"
       id="path13" />
    <path
       d="m 342,841.7 c 0,-2.5 0.9,-4.2 3.5,-6.7 1.9,-1.9 3.5,-4.3 3.5,-5.3 0,-1.1 1.8,-3.9 3.9,-6.2 2.2,-2.4 5.1,-6.6 6.6,-9.4 2.2,-4.4 2.9,-5.1 5.5,-5.1 h 3 l 0.2,-7.7 c 0.5,-18.6 -1.8,-28.3 -9.3,-39.7 -2.2,-3.2 -3.9,-6.6 -3.9,-7.5 0,-1 -1.2,-2.4 -2.7,-3.2 -1.6,-0.8 -4.8,-2.8 -7.3,-4.5 -2.5,-1.7 -6,-3.9 -7.7,-4.8 -2.8,-1.4 -3.3,-2.2 -3.3,-5.1 0,-3.4 0.1,-3.5 4,-3.5 2.3,0 5.5,0.7 7.3,1.6 4.1,2.2 14.7,10.3 14.7,11.3 0,0.5 1.6,2.5 3.5,4.5 3.9,4.1 9.1,14.5 11.1,22 1.4,5.3 1.9,26.1 0.8,32.9 -0.4,2.2 -1.2,3.7 -2,3.7 -1,0 -1.4,1.3 -1.4,4 0,2.3 -0.7,5.5 -1.6,7.3 -6,11.8 -19.2,24.7 -25.3,24.7 -2.8,0 -3.1,-0.3 -3.1,-3.3 z"
       id="path14" />
    <path
       d="m 715.3,819.3 c -1.8,-3.8 -1.6,-7.3 0.7,-11.8 1.1,-2.2 2,-4.7 2,-5.7 0,-1.4 0.8,-1.8 3.8,-1.8 5.7,0 6.5,1 6,7.1 -0.3,3 -1.5,7.5 -2.6,10.2 -1.9,4.2 -2.5,4.7 -5.4,4.7 -2.6,0 -3.6,-0.6 -4.5,-2.7 z"
       id="path15" />
    <path
       d="m 607.5,773.6 c -0.7,-6.2 -0.5,-6.8 3.1,-13.8 4.6,-8.7 14.5,-19.1 22.4,-23.5 10.2,-5.8 17,-7.4 33.1,-8 l 14.8,-0.6 0.6,3.6 c 1.4,7.2 1.4,7.2 -12.5,7.2 -11,0 -13.1,0.3 -18,2.4 -6.8,3 -15.5,8.4 -19.4,12 -4.7,4.4 -11.1,14.2 -13.6,20.9 -2.2,6.1 -2.3,6.2 -6,6.2 h -3.8 z"
       id="path16" />
    <path
       d="m 862,775.5 c 0,-2.2 0.6,-3.8 1.4,-4.1 0.8,-0.3 1.8,-1.9 2.1,-3.5 l 0.7,-2.9 h 27.4 27.4 v -15.9 c 0,-8.7 0.3,-17.9 0.6,-20.5 0.7,-4.4 0.8,-4.6 4.1,-4.6 2.1,0 3.6,0.6 3.9,1.5 0.4,0.8 1.7,1.5 3,1.5 2.9,0 3.1,1.5 0.4,3 -1.9,1 -2,2.1 -2,23.5 0,19.3 0.2,22.5 1.5,22.5 0.8,0 1.5,0.7 1.5,1.5 0,1.3 -4.7,1.5 -36,1.5 h -36 z"
       id="path17" />
    <path
       d="m 254,769.6 c 0,-4.8 4.6,-13.9 11,-21.5 4.8,-5.8 5.3,-6.1 9.5,-6.1 4.5,0 4.5,0 4.5,3.4 0,1.9 -0.4,3.8 -1,4.1 -0.5,0.3 -1,1.2 -1,2 0,0.8 -2.4,5 -5.2,9.3 -2.9,4.3 -5.7,8.6 -6.3,9.6 -0.7,1.1 -2.8,1.9 -6.2,2.3 l -5.3,0.6 z"
       id="path18" />
    <path
       d="m 714.5,763.2 c -0.6,-0.4 -2.5,-2.6 -4.2,-5 -1.7,-2.4 -5,-5.9 -7.2,-7.9 -3.3,-2.8 -4.1,-4.1 -4.1,-6.9 0,-3.3 0.1,-3.4 3.9,-3.4 4.8,0 8.6,2.9 14.8,11.3 3.1,4.2 4.3,6.9 4.3,9.3 0,3.2 -0.2,3.4 -3.2,3.4 -1.8,0 -3.8,-0.4 -4.3,-0.8 z"
       id="path19" />
    <path
       d="m 285,737.7 c 0,-2 0.7,-4.1 1.8,-5 4,-3.6 22.2,-6.5 33.6,-5.2 l 6.6,0.7 v 3.2 3.3 l -10.7,0.6 c -7.8,0.4 -12.9,1.3 -18.2,3.1 -4.1,1.4 -8.7,2.6 -10.3,2.6 -2.5,0 -2.8,-0.3 -2.8,-3.3 z"
       id="path20" />
    <path
       d="m 943,724.5 c 0,-1.3 0.5,-2.7 1,-3 1.5,-1 1.2,-5.5 -0.6,-7.2 -1.2,-1.3 -1.4,-2.8 -0.9,-7.4 0.5,-4.6 0.3,-6.4 -1.1,-8.8 -1,-1.7 -2.2,-3.1 -2.6,-3.1 -0.4,0 -0.8,-1.6 -0.8,-3.5 0,-1.9 0.5,-3.5 1,-3.5 0.6,0 1.9,-0.9 3,-2 1.1,-1.1 3.1,-2 4.5,-2 h 2.5 v 20.4 20.4 l -3,1.1 c -2.8,0.9 -3,0.8 -3,-1.4 z"
       id="path21" />
    <path
       d="m 829,714.3 c 0,-1.6 0.3,-6.5 0.7,-11 l 0.6,-8.3 h 3.2 c 4.1,0 4.5,1 4.5,10.8 -0.1,8.9 -1.3,11.2 -5.9,11.2 -2.7,0 -3.1,-0.3 -3.1,-2.7 z"
       id="path22" />
    <path
       d="m 801,652 v -10 h -4 c -3.6,0 -4,-0.3 -4,-2.5 v -2.4 l -12.7,-0.3 -12.8,-0.3 -0.1,-4.5 c 0,-2.5 -0.4,-5.2 -0.7,-6 -0.3,-0.8 -0.8,-3.7 -1,-6.5 -0.3,-2.7 -1.4,-9 -2.6,-14 -1.1,-4.9 -2.1,-10.7 -2.1,-12.7 0,-2.6 -0.5,-3.8 -1.4,-3.8 -1.5,0 -3.6,-7 -3.6,-11.9 V 574 l 24,-0.2 c 13.2,-0.1 25.9,-0.2 28.3,-0.3 h 4.2 l 0.6,9 c 0.5,6.2 1.9,12.8 4.6,21.5 l 3.9,12.5 4.2,0.3 c 3.3,0.2 4.2,0 4.2,-1.2 0,-0.9 0.7,-1.6 1.5,-1.6 0.8,0 1.5,0.7 1.5,1.5 0,0.8 0.7,1.5 1.5,1.5 0.8,0 1.4,-0.6 1.3,-1.2 -0.2,-1 7.7,-1.4 36.4,-1.6 32.5,-0.2 36.7,0 36.2,1.3 -0.4,1 0,1.5 1.5,1.5 1.4,0 1.9,-0.5 1.5,-1.5 -0.4,-1 0,-1.5 1.5,-1.5 1.2,0 2.1,0.6 2.1,1.5 0,0.8 0.5,1.5 1,1.5 0.6,0 1,-0.7 1,-1.5 0,-0.8 0.7,-1.5 1.5,-1.5 0.8,0 1.5,0.7 1.5,1.5 0,1.2 1.4,1.5 7,1.5 5.6,0 7,-0.3 7,-1.5 0,-0.8 0.4,-1.5 0.9,-1.5 1.3,0 2.1,5.4 2.1,14.4 0,9.2 -1.5,11.6 -7.1,11.6 h -3.1 l 0.3,-5.7 c 0.1,-3.2 0.1,-7.2 0.1,-8.9 l -0.2,-3 -26.2,-0.2 c -14.5,-0.1 -36.2,-0.4 -48.3,-0.7 -13.8,-0.4 -22.5,-0.3 -23.4,0.4 -1.3,0.8 -1.3,1.8 0,7.3 l 1.4,6.3 11.3,0.3 11.2,0.3 v 12.9 13 h -26 -26 z"
       id="path25" />
    <path
       d="m 951,658.3 c 0,-1 0.7,-2.7 1.5,-3.7 2,-2.6 1.9,-7.2 -0.1,-8 -0.9,-0.3 -2.8,-0.6 -4.3,-0.6 -3.6,0 -6.1,-2.8 -6.1,-6.8 V 636 h 5.6 c 4.5,0 5.5,0.3 5.1,1.4 -0.5,1.1 0.4,1.6 3.6,1.8 l 4.2,0.3 0.3,9.6 c 0.3,9.3 0.2,9.7 -2,10.3 -4.5,1.2 -7.8,0.7 -7.8,-1.1 z"
       id="path26" />
    <path
       d="M 739.3,511.3 C 738.5,511 738,508.8 738,505.4 V 500 h 23.3 c 12.7,0 23.7,0.4 24.3,0.8 1.6,1 3.6,5.1 3,6.1 -0.3,0.5 0.1,1.4 0.9,2.1 0.8,0.7 1.5,1.6 1.5,2.1 0,0.9 -49.5,1.1 -51.7,0.2 z"
       id="path30" />
    <path
       d="m 532,107.1 c -5.5,-0.6 -7.4,-1.3 -12.8,-5 -3.5,-2.5 -6.5,-4.8 -6.7,-5.2 -0.3,-0.4 -3.3,-0.5 -6.8,-0.1 -6.9,0.6 -6.9,0.6 -0.5,-6.3 l 2.7,-3 42.1,-0.4 42,-0.3 3.8,2.8 c 7.2,5.5 17.5,16.1 16.8,17.2 -0.8,1.3 -67.9,1.5 -80.6,0.3 z"
       id="path35" />
  </g>
  <g
     fill="#f9bf0f"
     id="g53"
     style="display:inline"
     inkscape:label="Jaune">
    <path
       d="m 303.5,853.4 c -1.1,-0.2 -4.6,-0.9 -7.8,-1.6 -3.4,-0.6 -6.7,-2 -8.3,-3.4 -1.4,-1.3 -3.1,-2.4 -3.9,-2.4 -0.8,0 -2.5,-1 -3.8,-2.2 -1.3,-1.3 -4,-3.6 -6,-5.1 -2.1,-1.5 -3.7,-3.4 -3.7,-4.2 0,-1 2.4,0.3 6.7,3.4 3.7,2.7 7.1,4.7 7.5,4.5 0.4,-0.3 0.8,-0.1 0.8,0.4 0,1 4.4,3.2 6.3,3.2 0.6,0 -2.2,-2.1 -6.3,-4.6 -9.1,-5.5 -12.2,-8.3 -11.5,-10.2 0.3,-0.8 0,-2.1 -0.6,-2.8 -2.4,-2.9 4.2,-1.5 7.8,1.6 7.3,6.5 24.1,13 33.5,13 6.6,0 19.4,-4.3 26.5,-8.9 3.3,-2.1 6.4,-4.4 6.7,-5 0.4,-0.6 2.1,-1.1 3.8,-1.1 2.6,0 2.8,0.2 1.8,1.5 -0.6,0.8 -0.9,1.9 -0.5,2.5 0.4,0.7 -1.1,3.2 -3.6,5.8 l -4.4,4.6 5.5,-4.3 c 7,-5.4 7.8,-3.6 1.4,3.1 -5.2,5.3 -11.7,8.9 -19.9,10.8 -5.3,1.2 -24.6,2.2 -28,1.4 z"
       id="path36" />
    <path
       d="m 114.5,697.5 c -1.7,-0.9 -3.6,-2.4 -4.3,-3.5 -1.1,-1.9 -1,-2 3,-2 6.3,0 10.8,1.9 10.8,4.7 0,1.9 -0.5,2.3 -3.2,2.3 -1.8,0 -4.7,-0.7 -6.3,-1.5 z"
       id="path23"
       style="display:inline" />
    <path
       d="m 130,691.6 c 0,-2.8 0.7,-4.1 3.7,-6.5 5,-4.2 9.4,-6.1 13.7,-6.1 3.4,0 3.6,0.2 3.6,3.5 0,3 -0.6,3.8 -4.1,6 -8,5.1 -11,6.5 -13.9,6.5 -2.7,0 -3,-0.3 -3,-3.4 z"
       id="path24"
       style="display:inline" />
    <path
       d="m 77.1,635.8 c -2.4,-3.9 -3.2,-8.1 -2,-11.5 1.3,-4.2 3.9,-4.4 3.9,-0.4 0,1.7 0.5,3.3 1,3.6 0.6,0.3 1,2.8 1,5.6 0,5.4 -1.5,6.5 -3.9,2.7 z"
       id="path27"
       style="display:inline" />
    <path
       d="m 289,600.7 c 0,-5.3 6.6,-9.7 14.5,-9.7 4.4,0 4.5,0 4.5,3.3 0,3.1 -0.5,3.6 -6.1,6.5 -3.4,1.8 -7.7,3.2 -9.5,3.2 -3.2,0 -3.4,-0.2 -3.4,-3.3 z"
       id="path28"
       style="display:inline" />
    <path
       d="m 649.5,850 c -11,-2.9 -21.5,-8.5 -21.5,-11.5 0,-1 1.9,-0.2 6.1,2.5 11.7,7.5 24.7,10.8 37.9,9.4 l 7.5,-0.8 -12,-0.7 c -9.1,-0.4 -13.9,-1.2 -19.6,-3.2 -8.4,-2.8 -17.2,-8.2 -16.6,-10.1 0.3,-0.6 -0.2,-1.9 -1.1,-2.8 -1.4,-1.7 -1.3,-1.8 1.7,-1.8 1.7,0 4.9,1.2 7,2.6 12.3,8.1 28.6,11.1 40.1,7.5 6.9,-2.2 12,-2.7 12,-1.2 0,0.5 -0.7,1.1 -1.5,1.5 -0.8,0.3 -1.5,1.1 -1.5,1.7 0,0.7 -0.8,2.1 -1.7,3.2 -1.9,2.1 -1.8,2.1 3,0.2 2.6,-1.1 2.1,1.1 -0.9,3.4 -2.4,1.9 -4,2.1 -17.3,2 -10.9,0 -16.4,-0.5 -21.6,-1.9 z"
       id="path37" />
    <path
       d="m 708.9,833.6 c 1.1,-1.3 1.1,-1.6 -0.3,-1.6 -0.9,0 -1.6,-0.5 -1.6,-1.1 0,-0.8 -0.5,-0.8 -1.5,0.1 -1.3,1.1 -1.5,0.8 -1.5,-1.7 0,-1.8 1.5,-4.8 3.9,-8.1 2.2,-2.9 4.3,-6.1 4.6,-7.2 0.4,-1.1 1.2,-2 2,-2 0.7,0 2.2,-0.3 3.2,-0.7 1.6,-0.6 1.6,-0.5 0.5,1 -1.8,2.1 -0.6,4.3 1.4,2.6 1.7,-1.4 1.8,-0.5 0.4,2.2 -0.6,1 -0.8,1.9 -0.5,1.9 0.3,0 1.5,-1.9 2.6,-4.2 l 1.9,-4.3 -0.4,5.8 c -0.4,4.7 -1.2,6.8 -4.8,12 -3.7,5.3 -4.9,6.2 -7.8,6.5 -3,0.3 -3.2,0.2 -2.1,-1.2 z"
       id="path38" />
    <path
       d="m 300.1,817.9 c -7.1,-3.2 -11,-6.8 -14,-12.8 -1.7,-3.3 -2.1,-5.9 -2.1,-14.9 0,-10.2 0.2,-11.1 2.8,-15.3 3.3,-5.1 7.7,-9.1 13.3,-11.9 5.3,-2.8 20.6,-2.8 26.5,-0.1 5.3,2.4 10.5,7.5 13.5,13.1 2.1,3.9 2.4,5.9 2.4,14.5 0,8.4 -0.4,10.7 -2.3,14.6 -3.4,6.9 -6,9.4 -13.2,12.8 -9,4.3 -17.7,4.3 -26.9,0 z"
       id="path39" />
    <path
       d="m 652.2,817.4 c -5.6,-2.8 -9.1,-6.4 -12.4,-12.8 -3.1,-6.1 -3.2,-22.4 -0.2,-28.1 2.8,-5.1 6.6,-9 12.3,-12.3 3.9,-2.3 6,-2.7 14.2,-3 9.1,-0.4 10,-0.2 14.8,2.3 12.1,6.6 15.5,13.1 14.9,28.8 -0.3,10.4 -0.3,10.6 -4.3,16.3 -5.9,8.6 -11.9,11.4 -24.6,11.4 -8.2,0 -10.2,-0.3 -14.7,-2.6 z"
       id="path40" />
    <path
       d="m 253,810.3 c -5.2,-16.5 -2.5,-45.3 4.1,-45.3 1.7,0 1.8,0.3 0.9,2.1 -0.7,1.1 -0.9,2.3 -0.6,2.7 0.3,0.3 0.6,0 0.6,-0.7 0,-0.8 0.7,-1 1.9,-0.6 1.4,0.4 2.3,0 3.1,-1.5 0.6,-1.1 1.5,-2 2,-2 1.9,0 1,6.1 -1.6,11.8 -2.4,5.1 -2.6,6.6 -2.1,14.2 0.3,5.2 1.3,10.7 2.6,14 2.2,5.8 2.7,10.5 1.2,11.5 -0.5,0.3 -1.2,-0.3 -1.6,-1.4 -0.4,-1.3 -1.2,-1.7 -2.6,-1.4 -1.2,0.3 -1.8,1.1 -1.5,1.9 0.4,1 -0.2,1.4 -1.9,1.4 -2.1,0 -2.7,-0.8 -4.5,-6.7 z"
       id="path41" />
    <path
       d="m 361,813.3 c 0,-1.6 0.7,-4.8 1.6,-7.3 3.1,-8.8 3.5,-14.1 2,-22.9 -4.5,-25.4 -26.2,-44.2 -51.3,-44.2 -11.3,0 -28.2,7 -35.2,14.5 -1.6,1.6 -3.5,2.6 -5.3,2.6 h -2.9 l 2,-2.9 c 1.1,-1.5 1.8,-3.1 1.4,-3.5 -0.3,-0.3 0.2,-1.5 1.2,-2.6 2.3,-2.5 0,-2.8 -2.7,-0.3 -1,0.9 -1.8,1.1 -1.8,0.6 0,-1.9 2.7,-6.4 4.7,-7.8 4,-2.8 9.5,-5.5 11.2,-5.5 1,0 4.4,-0.9 7.6,-2 8.9,-3.1 31.3,-4.4 38.5,-2.4 8.7,2.4 9,2.6 9,4 0,0.8 0.4,1.4 0.8,1.4 0.5,0 3.8,1.9 7.3,4.2 3.5,2.3 7.8,5 9.4,5.9 1.7,0.9 3.1,2.6 3.3,3.9 0.2,1.2 2,4.8 4,7.9 7.5,11.5 10.3,27.6 8.4,47.4 -0.5,5.4 -1.1,9.9 -1.3,10.1 -0.2,0.2 -1.4,0.7 -2.6,1 -1.8,0.6 -2,0.4 -1.6,-1.3 0.4,-1.6 0,-2 -1.7,-1.8 -1.2,0.1 -2.6,0.9 -3.1,1.9 -1.4,2.7 -2.9,2.2 -2.9,-0.9 z m 11.9,-22.8 c 0.1,-14 -3.3,-25.1 -10.9,-35.5 -5.1,-6.9 -4.7,-3.1 0.5,4.4 2.4,3.6 4.5,6.9 4.5,7.4 0,0.4 1,3.6 2.2,7.2 1.9,5.4 2.2,8.6 2.2,19.5 0,7.2 0.3,11.7 0.7,10 0.4,-1.6 0.7,-7.5 0.8,-13 z M 357,748.6 c 0,-0.8 -11.4,-9.2 -14.8,-11 -1.8,-1 -3.9,-1.5 -4.5,-1.3 -0.7,0.2 0.4,1.2 2.3,2.2 1.9,1 5.5,3.2 8,4.9 3.8,2.6 7.8,5.1 8.8,5.5 0.1,0.1 0.2,-0.1 0.2,-0.3 z m -43.5,-16.3 c 9.9,-0.6 10.5,-0.8 6.5,-1.5 -8.6,-1.7 -26.7,1.5 -30.5,5.3 -1.8,1.8 -1.3,1.7 5.5,-0.6 5.4,-1.9 10.6,-2.8 18.5,-3.2 z"
       id="path42" />
    <path
       d="m 606.1,810.3 c -1.8,-5.3 -2.6,-27.8 -1.2,-34.4 1.5,-7 4.1,-11.9 6.4,-11.9 1.6,0 1.6,0.2 0.2,3 -1.9,3.8 -1.9,5.3 0.1,2 l 1.5,-2.5 -0.7,3 c -1.1,5.1 -1.3,7.5 -0.4,7.5 0.5,0 1.4,-1.7 2.1,-3.7 l 1.2,-3.8 1,2.8 c 0.6,1.9 0.5,5.5 -0.2,10.3 -1.4,9.3 -1.4,19.1 -0.1,19.9 0.6,0.3 1,3 1,5.8 -0.1,4.7 -0.2,5 -1.5,3.4 -1.7,-2.3 -5.1,-1.8 -4.7,0.6 0.2,1.1 -0.4,1.7 -1.6,1.7 -1.3,0 -2.3,-1.2 -3.1,-3.7 z"
       id="path43" />
    <path
       d="m 719.2,806.2 c -1,-0.3 -1.1,-2.9 -0.6,-11.5 0.6,-10.9 0.6,-11.4 -2.5,-19.3 -6.8,-17.7 -19.7,-30.1 -36.1,-35 -2.9,-0.8 -5,-2.1 -5,-2.9 0,-0.7 -0.6,-1.6 -1.2,-1.8 -0.7,-0.2 -0.1,-0.3 1.4,-0.1 3.4,0.4 4.8,-1.5 1.7,-2.3 -2.2,-0.6 -2.2,-0.7 -0.3,-1.4 1.5,-0.6 1.2,-0.8 -1.3,-0.8 -4.4,-0.1 -4.2,-1.8 0.3,-2.7 7.2,-1.3 28.5,7.2 30.4,12.2 0.5,1.2 2.2,3.3 3.9,4.5 1.6,1.2 4.4,4.2 6.2,6.8 1.8,2.5 4.1,5.1 5,5.8 4.3,3.1 8.9,19.9 8.9,32.4 0,11.9 -0.9,16.9 -3.1,16.9 -1.1,0 -1.9,-0.6 -1.9,-1.4 0,-0.8 -0.7,-1.7 -1.6,-2 -2.2,-0.8 -2.2,-0.8 -2.6,1.2 -0.2,1.1 -0.9,1.7 -1.6,1.4 z m -1.9,-48.3 C 714.7,753.3 704.7,743 703,743 c -0.9,0.1 0.5,1.9 3.1,4.3 2.5,2.3 5.9,6 7.5,8.2 2.6,3.6 4.4,5.4 5.2,5.5 0.2,0 -0.5,-1.4 -1.5,-3.1 z"
       id="path44" />
    <path
       d="m 856,698.8 v -80.3 l 25.7,0.3 c 14.2,0.1 30.8,0.2 36.9,0.2 8.4,0 11.3,0.3 11.7,1.3 0.3,0.8 0.4,4.7 0.3,8.9 -0.1,6.4 0,7.3 1.3,6.1 1,-1 1.7,-1.1 2.4,-0.4 0.6,0.6 3.9,1.1 7.3,1.1 4.2,0 6.5,0.5 7.4,1.5 1.1,1.3 0.8,1.5 -1.5,1.5 -2.8,0 -2.8,0 -1,2 1.1,1.2 3,2 4.4,1.9 1.4,-0.1 3.6,0.2 4.9,0.6 2.1,0.7 2.3,1.2 1.8,6.2 -0.5,6.3 -2.8,10.3 -5.7,10.3 -1.2,0 -2.3,0.8 -2.6,2 -0.5,2 -3.3,2.9 -3.3,1 0,-0.6 -2.7,-1 -6,-1 -5.7,0 -6,0.1 -6,2.4 0,2.3 0.4,2.5 7.5,3.1 l 7.5,0.7 v 9.3 c 0,8.8 -0.1,9.2 -2.5,10.3 -1.4,0.6 -2.5,1.6 -2.5,2.1 0,0.5 -0.8,1.2 -1.7,1.4 -1.7,0.4 -1.7,0.5 0,0.6 1,0 1.6,0.5 1.2,1 -0.3,0.5 -0.1,1.2 0.5,1.6 2.3,1.4 0.7,2.5 -3.5,2.5 H 936 v 6.1 c 0,6.7 -0.6,6.3 6.6,4.3 1.7,-0.4 2.3,0 2.8,2 0.3,1.4 1.1,2.6 1.6,2.6 1.5,0 1.2,11.6 -0.3,12.9 -0.8,0.6 -4.5,2 -8.3,3.1 -3.8,1.2 -7.5,2.3 -8.1,2.5 -0.7,0.2 -2.2,-0.5 -3.3,-1.7 l -2,-2.2 v 3.4 c 0,3.2 -0.1,3.3 -1.5,1.4 -0.8,-1 -1.5,-4.1 -1.5,-6.9 0,-2.7 -0.3,-7.4 -0.6,-10.2 L 920.7,709 H 895 869.2 l -0.4,5.8 c -0.2,3.1 -0.2,15.7 0.1,27.9 0.3,20.7 0.5,22.2 2.2,22.6 2.5,0.7 2.4,2.7 -0.1,2.7 -1.1,0 -1.9,0.3 -1.8,0.8 0.2,1.3 -1.5,4.7 -3.1,5.9 -1.4,1 -1.1,1.2 1.8,1.3 3.3,0 3.4,0.1 1.5,1.5 -1.1,0.9 -4.2,1.4 -7.6,1.5 H 856 Z m 65.2,-19 c 0.2,-7.9 0.2,-20.3 0,-27.5 L 920.8,639 H 894.9 869 v 27.5 27.5 h 25.9 25.8 z"
       id="path45" />
    <path
       d="m 826.5,735.9 c -6,-1 -12.8,-2.2 -15,-2.7 -2.2,-0.6 -5.5,-1.3 -7.2,-1.7 L 801,730.8 V 699.4 668 h 21.8 21.9 l 0.6,12.2 c 0.9,15.4 0.9,45.7 0.1,52.6 l -0.7,5.2 -3.6,-0.1 c -2,-0.1 -8.5,-1 -14.6,-2 z m 8.4,-29.6 c 0.1,-2.4 -0.1,-5.4 -0.6,-6.6 -0.6,-2 -0.8,-1.8 -1.3,1.3 l -0.7,3.5 -1.6,-3.7 -1.7,-3.8 h -7.5 c -7.3,0 -7.6,0.1 -8.6,2.7 -0.6,1.5 -0.8,4.2 -0.4,6 0.5,2.6 1.1,3.3 2.9,3.3 1.3,0 5.1,0.3 8.4,0.6 5.8,0.6 6.2,0.6 7.1,-1.7 0.8,-2.1 1,-1.8 1,2 0.1,4 0.3,4.3 1.4,2.7 0.7,-1 1.4,-3.8 1.6,-6.3 z"
       id="path46" />
    <path
       d="m 120.4,698.1 c 0.6,-1 -7.1,-3.7 -8.1,-2.8 -0.9,1 -5.8,-6.7 -14.3,-22.3 -4,-7.4 -10.2,-18.7 -13.8,-25 -3.7,-6.5 -6.5,-12.5 -6.4,-13.9 0.1,-1.3 -0.2,-2.9 -0.7,-3.5 -0.8,-1 -1.5,-5.4 -1.2,-8.2 0.1,-0.6 6.9,-7.8 15.3,-16 34.4,-33.7 66.1,-64.7 79.1,-77.4 12.7,-12.4 13.6,-13.5 11.2,-13.8 -2.1,-0.3 -2.4,-0.6 -1.4,-1.8 0.6,-0.8 2.2,-1.4 3.5,-1.4 1.2,0 2.9,-0.8 3.6,-1.8 0.7,-0.9 2.6,-2.5 4.1,-3.5 1.6,-1 5.9,-5 9.7,-8.8 3.8,-3.8 7.2,-6.9 7.7,-6.9 0.4,0 -4.8,5.6 -11.7,12.5 -6.9,6.9 -11.9,12.5 -11.2,12.5 0.7,0 2.6,-1.3 4.4,-3 1.7,-1.6 3.4,-3 3.9,-3 0.4,0 4.3,-3.6 8.8,-8 4.4,-4.4 8.6,-8 9.4,-8 0.7,0 1.8,-1.3 2.4,-3 0.8,-2.1 0.8,-3 0,-3 -0.6,0 1.8,-2.9 5.3,-6.4 3.5,-3.6 6.6,-6.5 6.9,-6.4 1.9,0.2 3.2,-0.3 2.7,-1 -0.3,-0.5 1.5,-1.3 3.9,-2 3.4,-0.9 6.3,-3 12,-8.5 4.1,-4 7.5,-8 7.5,-8.8 0,-0.8 1.4,-2 3.1,-2.8 4.4,-1.9 23.6,-20.6 24.3,-23.6 0.4,-1.4 1.1,-2.5 1.6,-2.5 0.5,0 2.8,-2.5 5,-5.5 2.2,-3 4.7,-5.5 5.5,-5.5 1.3,0 3.5,-2.8 3.5,-4.4 0,-1.9 -3.3,0.4 -10.8,7.7 -4.7,4.5 -8.1,7.5 -7.7,6.7 0.5,-0.8 1.7,-2.1 2.6,-2.8 1,-0.7 1.9,-2.5 2.1,-4 0.2,-2.1 1.3,-3.2 5.1,-5 3.7,-1.8 4.7,-2.9 4.7,-4.8 0,-2 0.5,-2.4 3.3,-2.4 2.7,0 4.4,-1.1 9.6,-6.4 3.5,-3.6 6,-6.9 5.7,-7.5 -0.4,-0.6 -3.8,-1.1 -7.9,-1.1 -13.8,0 -40.7,-3.6 -42.8,-5.7 -0.5,-0.5 2.5,-5.3 6.7,-10.8 25.5,-34 47.4,-83.4 53.1,-120 0.8,-5.5 1.9,-10.7 2.3,-11.5 1.2,-2.5 8,-4.2 18,-4.3 11.6,-0.2 18.2,1.6 27.1,7.5 15.6,10.4 27.6,27.2 34.8,49 1.3,3.8 2.8,6.8 3.5,6.8 0.7,0 3.8,-2.4 6.9,-5.3 4.5,-4.1 5.7,-5.9 5.7,-8.2 0,-1.7 -1.4,-10.9 -3.1,-20.5 -5.6,-32.4 -7,-41.5 -7.6,-47.5 l -0.5,-6 8.4,-11 c 4.6,-6 26.1,-33.2 47.7,-60.2 26.5,-33.2 40,-49.3 41.2,-49.3 1.1,0 2.8,-0.9 3.9,-2 2.5,-2.5 2.4,-2.5 6.1,0.8 1.7,1.5 5.9,4.6 9.2,6.9 5.3,3.6 7,4.3 11.2,4.3 6.4,0 9.5,0.9 9.5,2.6 0,1 -1.5,1.4 -5.2,1.4 l -5.3,0.1 -10.5,13.1 c -5.8,7.2 -16.8,21 -24.5,30.7 -7.7,9.7 -18.9,23.8 -24.8,31.1 -17.1,21.3 -22.4,30.3 -20.9,35 0.5,1.6 4.1,9.6 7.8,17.6 1.3,2.8 2.4,5.4 2.4,5.7 0,0.3 1.5,3.8 3.4,7.9 8.7,18.9 13.7,30 21.6,48.3 2.9,6.6 5.6,12.4 6.1,12.9 0.5,0.5 3.2,0.5 6.8,0 l 5.9,-0.9 -8.5,-19 c -21.9,-49 -32.3,-73.9 -32.3,-77.1 0,-4.6 0.9,-5.4 6.4,-5.4 h 5.3 l 4.5,10.3 c 2.5,5.6 7.9,17.6 11.8,26.7 4,9.1 10.5,23.7 14.5,32.5 3.9,8.8 8.9,19.9 11,24.8 l 3.8,8.7 h 8.8 8.8 l -2.6,-5.7 c -1.4,-3.2 -5.8,-13.4 -9.8,-22.8 -4,-9.3 -10.2,-23.7 -13.7,-32 C 502,220.9 501,218.3 501,213.7 c 0,-6.2 0.8,-7.7 3.9,-7.7 6.3,0 6.8,0.6 11.1,11.5 0.5,1.1 1.7,4 2.8,6.5 1.1,2.5 4.8,11 8.2,19 5.7,13.4 8.9,20.8 16,36.5 1.5,3.3 4.7,10.7 7,16.5 6.7,16.6 5.1,15 14.7,15 h 8.3 l 3,4.7 c 1.7,2.6 3,5.2 3,5.9 0,0.6 0.9,3.1 2,5.5 1.1,2.4 2,6.1 2,8.2 0,3.6 -0.1,3.7 -3.7,3.8 -2.1,0.1 -5,0.4 -6.5,0.8 l -2.7,0.6 2.3,6.5 c 1.2,3.6 6.7,16.4 12,28.5 5.4,12.1 13.2,29.7 17.3,39 4.1,9.4 8.8,19.6 10.4,22.8 2.8,5.7 3.8,11.7 1.9,11.7 -0.5,0 -1.3,-0.7 -1.8,-1.7 -0.8,-1.4 -1.4,-1.1 -4.6,2 -2,2.1 -4,3.7 -4.5,3.7 -0.4,0 -4.5,-8.7 -9,-19.2 -4.6,-10.6 -10.6,-24.5 -13.3,-30.8 -2.7,-6.3 -6.2,-14.4 -7.7,-18 -1.6,-3.6 -3.8,-8.6 -5,-11.2 -1.1,-2.6 -2.1,-4.9 -2.1,-5.2 0,-0.6 -3.7,-8.9 -9.1,-20.3 l -4,-8.3 H 545 c -4.4,0 -8,0.3 -8,0.7 0,0.5 3,7.3 10.5,23.8 1.2,2.8 3.1,7 4.2,9.5 3.9,8.6 13.5,29.5 17.4,37.6 2.1,4.4 5.5,11.9 7.4,16.5 2,4.6 4,8.8 4.4,9.4 0.5,0.5 1.1,4.2 1.4,8 0.5,6.2 0.5,6.6 -0.6,3.8 -1.9,-5 -3.1,-5.3 -2.3,-0.5 0.6,3.7 0.4,4.2 -1.3,4.2 -1.1,0 -2.2,0.4 -2.5,0.8 -0.2,0.4 1,0.6 2.9,0.4 1.8,-0.2 3.6,0.1 3.9,0.7 0.5,0.7 -1,1.1 -4.6,1.1 -5.2,0 -5.3,-0.1 -6.9,-3.8 -1,-2 -3.1,-6.8 -4.9,-10.7 -1.8,-3.8 -5,-11.3 -7.2,-16.5 -2.2,-5.2 -5.3,-12.2 -6.8,-15.5 -1.5,-3.3 -7.5,-16.8 -13.4,-30 -5.9,-13.2 -12.4,-27.7 -14.6,-32.2 l -4,-8.3 h -6.5 -6.5 l 1.4,3.3 c 0.7,1.7 2.5,5.7 3.9,8.7 4,8.3 21.7,48.1 21.7,48.6 0,0.2 1.8,4.4 4.1,9.2 12.1,25.9 13.7,30.3 14.3,39.7 0.6,9 0.6,9.1 -2.1,11.6 -4.4,4 -11.9,7.9 -15.2,7.9 -1.6,0 -4.1,0.4 -5.5,1 -3.8,1.4 -3.2,0.3 1.2,-1.9 3.5,-1.9 3.6,-2 1,-2.1 -3.6,0 -7.8,1.7 -9.4,3.8 -2,2.6 -1.7,3.5 1.2,2.8 l 2.6,-0.7 -2,2.8 c -1.1,1.5 -5.3,4.5 -9.4,6.7 -4,2.1 -9.2,5.2 -11.6,6.7 -2.4,1.6 -4.6,2.9 -5,2.9 -0.4,0 -5.4,2.7 -11,6 -5.7,3.3 -10.7,6 -11.2,6 -0.5,0 -4.6,2.3 -9.2,5.1 -4.6,2.9 -10.4,6.4 -13,7.8 -3.6,1.9 -4.8,3.2 -4.8,4.8 0,2 -0.5,2.3 -3.9,2.3 -3.8,0 -6.3,1.2 -24.6,11.7 -3.8,2.2 -10.6,5.9 -14.9,8.3 -4.4,2.3 -9.1,4.9 -10.5,5.8 -1.4,1 -4.2,2.6 -6.2,3.7 -27.5,14.9 -40.9,22.8 -40.9,24.3 0,0.6 -1,1.2 -2.2,1.2 -1.3,0 -4.3,1.2 -6.8,2.6 -4.2,2.5 -6.9,4 -17.5,9.9 -2.2,1.2 -6.1,3.4 -8.7,4.9 -2.6,1.4 -5.4,2.6 -6.3,2.6 -2.2,0 -9.5,3.8 -9.5,5 0,1.6 -3.8,5 -5.6,5 -0.9,0 -2.8,0.8 -4.2,1.9 -1.5,1 -5,3 -7.8,4.4 -2.8,1.4 -6.4,3.7 -8,5 -1.6,1.3 -4.6,3 -6.6,3.6 -2.1,0.7 -5.1,2.6 -6.9,4.2 -1.7,1.6 -3.9,2.9 -4.8,2.9 -0.9,0 -7.3,3.3 -14.1,7.3 -6.9,3.9 -13.6,7.8 -15,8.5 -5.4,2.7 -16.9,9.1 -24,13.5 -4.1,2.5 -11.5,6.8 -16.5,9.5 -4.9,2.8 -13.7,7.8 -19.5,11.2 -5.8,3.4 -12.1,6.5 -14,6.8 -4.6,0.7 -10,4.2 -10,6.5 0,1 -0.8,2 -1.7,2.3 -1,0.3 -3.4,1.4 -5.4,2.5 -3.6,1.9 -13.5,2.7 -12.5,1 z M 144,685.5 c 2.3,-1.5 4,-2.9 3.7,-3.2 -0.9,-0.9 -7.4,2.7 -11.4,6.3 l -3.8,3.4 3.7,-1.9 c 2,-1.1 5.5,-3.2 7.8,-4.6 z m 38.3,-57.7 c 6.2,-3.4 19.8,-11.1 30.2,-17.1 10.5,-6.1 21.7,-12.5 25,-14.2 3.3,-1.8 13.1,-7.3 21.9,-12.4 8.7,-5 15.9,-9.1 16.1,-9.1 0.3,0 26.4,-14.6 28.5,-15.9 1.5,-1 9.6,-5.6 18.5,-10.6 2.8,-1.6 6.7,-3.9 8.7,-5.2 2.1,-1.2 3.9,-2.3 4.1,-2.3 0.4,0 12.3,-6.7 33.7,-18.9 6.9,-3.9 15,-8.5 18,-10.2 4.9,-2.7 18,-10.1 26.5,-14.9 1.7,-0.9 5.7,-3.2 9,-5 3.3,-1.8 12.1,-6.8 19.5,-11 7.4,-4.3 15.1,-8.7 17,-9.8 1.9,-1.1 9.1,-5.2 15.8,-9.1 6.8,-3.9 12.6,-7.1 12.9,-7.1 0.3,0 3.9,-2.1 7.9,-4.7 8.2,-5.2 8.1,-4.8 3.9,-13.3 -1.3,-2.5 -4.8,-10.3 -8,-17.5 -3.1,-7.1 -7.2,-16.3 -9.1,-20.3 -1.9,-4 -3.4,-7.5 -3.4,-7.7 0,-0.2 -1.2,-3 -2.6,-6.1 l -2.6,-5.6 -3.6,3.3 c -2,1.9 -8.4,7.9 -14.2,13.5 -5.8,5.5 -15.2,14.5 -21,19.8 -5.8,5.4 -12.1,11.5 -14,13.5 -2,2 -12.6,12.1 -23.5,22.6 -25.5,24.2 -38.6,36.7 -50.6,48.3 l -9.6,9.2 H 332 c -6.2,0 -10.2,-2.1 -14.5,-7.7 -1.7,-2.1 -4.2,-5.1 -5.7,-6.6 -2.3,-2.3 -2.8,-3.8 -2.8,-7.6 0,-4.7 0,-4.8 11.3,-15.7 6.1,-6.1 16.8,-16.4 23.7,-23 6.9,-6.5 24.7,-23.6 39.5,-37.9 14.9,-14.3 30.6,-29.4 35,-33.5 4.3,-4.1 14.6,-14.1 22.9,-22.1 l 15,-14.7 -4.8,-10.8 c -2.6,-6 -5,-12 -5.3,-13.4 -0.6,-2.9 -2.1,-5 -3.5,-5 -1,0 -9.7,8 -30.3,27.9 -27.2,26.3 -37.2,35.9 -60.5,58.1 -12.9,12.3 -35.2,33.7 -49.5,47.5 -14.3,13.8 -38.8,37.4 -54.5,52.5 -15.7,15 -35.5,34.2 -44,42.5 -8.5,8.3 -25.1,24.2 -36.7,35.4 -11.7,11.2 -21.3,20.9 -21.3,21.6 0,1.3 11.9,21.4 18.2,30.8 2.1,3.1 4.6,5.7 5.4,5.7 0.9,0 6.6,-2.8 12.7,-6.2 z M 302,596.2 c 2.3,-1.5 2.9,-2.2 1.7,-2.2 -2.3,0 -9,3.4 -10.7,5.5 -1.3,1.6 -1.2,1.6 2,0.2 1.9,-0.8 5.1,-2.4 7,-3.5 z"
       id="path47" />
    <path
       d="m 931.7,620.4 c -0.8,-0.8 0.1,-2.4 1.4,-2.4 0.5,0 0.9,0.7 0.9,1.5 0,1.5 -1.2,2 -2.3,0.9 z"
       id="path48" />
    <path
       d="m 858,616.4 c 5.8,-0.7 50,-0.9 50,-0.2 0,0.5 -11.8,0.7 -26.2,0.7 -14.5,-0.1 -25.2,-0.3 -23.8,-0.5 z"
       id="path49" />
    <path
       d="m 911.5,616 c -0.3,-0.5 0.3,-1 1.4,-1 1.2,0 2.1,0.5 2.1,1 0,0.6 -0.6,1 -1.4,1 -0.8,0 -1.8,-0.4 -2.1,-1 z"
       id="path50" />
    <path
       d="m 734.8,510.3 c -2.4,-0.4 -2.8,-0.9 -2.8,-3.8 0,-6.8 -0.9,-6.5 21.4,-6.3 l 20.1,0.2 -16,0.6 -16,0.5 v 3.3 c 0,2.2 0.5,3.4 1.8,3.8 0.9,0.3 1.5,1 1.2,1.5 -0.6,0.9 -4.5,1 -9.7,0.2 z"
       id="path51" />
    <path
       d="m 211,486.9 c 0,-2.3 3.6,-6.9 5.3,-6.9 1.8,0 0.4,3.9 -2.3,6.5 l -3,2.9 z"
       id="path53" />
    <path
       d="m 319.1,286.2 c 0,-0.9 0.7,-3.3 1.4,-5.2 l 1.3,-3.5 0.1,4.6 c 0.1,3.3 -0.3,4.9 -1.4,5.3 -1,0.3 -1.5,-0.1 -1.4,-1.2 z"
       id="path81"
       style="display:inline" />
    <path
       d="m 350.3,341.3 c -1.4,-0.5 -1.8,-4.3 -0.5,-4.3 0.4,0 1.8,-0.9 3.1,-1.9 2.2,-1.7 2.2,-1.9 0.8,-4.7 -2.5,-4.9 -0.5,-6.1 2.6,-1.6 3.3,4.7 3.3,5.5 0.2,7.6 -1.4,0.9 -2.5,2.5 -2.5,3.6 0,1.9 -1.2,2.4 -3.7,1.3 z"
       id="path80"
       style="display:inline" />
    <path
       d="m 333,355.2 c 0,-0.5 -1,-1.4 -2.2,-2 -2,-0.9 -2,-1.1 -0.5,-1.1 1.6,-0.1 1.8,-0.7 1.2,-4 -0.6,-3.4 -0.3,-4.1 1.5,-5.1 1.7,-0.9 2.5,-0.9 3.8,0.3 0.9,0.8 2.7,1.8 4,2.1 2.2,0.7 2.7,2.1 1.6,5 -0.5,1.2 -1,1.3 -2.6,0.5 -2.2,-1.2 -6.8,-0.4 -6.8,1.2 0,0.5 0.7,1.2 1.5,1.5 0.8,0.4 1.5,1 1.5,1.5 0,0.5 -0.7,0.9 -1.5,0.9 -0.8,0 -1.5,-0.4 -1.5,-0.8 z"
       id="path79"
       style="display:inline" />
    <path
       d="m 318.2,367.1 c -0.9,-0.5 -1.1,-1.7 -0.6,-3.4 0.5,-2.3 1.1,-2.7 4.5,-2.7 4.5,0 5.3,2 1.4,3.8 -1.4,0.6 -2.5,1.6 -2.5,2.2 0,1.2 -1,1.3 -2.8,0.1 z"
       id="path78"
       style="display:inline" />
    <path
       d="m 518,471.3 c 0.1,-6.7 3.9,-9.3 13.6,-9.3 h 5.4 v 3.5 c 0,1.9 -0.4,3.5 -0.8,3.5 -0.5,0 -2.9,1.3 -5.3,3 -3.2,2.1 -5.6,3 -8.6,3 H 518 Z"
       id="path32"
       style="display:inline" />
    <path
       d="m 603.8,456.9 c -1.2,-0.7 -1.8,-2.2 -1.8,-4.7 0,-4.8 4.5,-9.2 9.6,-9.2 3,0 3.4,0.4 4.4,3.8 0.7,2 1,5.3 0.8,7.2 l -0.3,3.5 -5.5,0.2 c -3,0.2 -6.3,-0.2 -7.2,-0.8 z"
       id="path34"
       style="display:inline" />
    <path
       d="m 572,454.4 c 0,-2.7 0.5,-3.7 2,-4.1 1.6,-0.4 2,-1.4 2,-4.4 0,-3.8 0.1,-3.9 3.5,-3.9 4.2,0 5.5,2.2 6.3,10.8 l 0.4,5.2 h -7.1 -7.1 z"
       id="path33"
       style="display:inline" />
    <path
       d="m 224,478.2 c 0,-0.5 1.1,-1.9 2.5,-3.2 1.9,-1.8 2.4,-3.1 2.1,-5.4 -0.4,-2.8 0.3,-3.8 7.7,-10.6 4.5,-4.1 18.6,-17.4 31.4,-29.7 22.4,-21.6 23.3,-22.3 27.2,-22.3 4,0 4.1,0.1 4.1,3.6 0,4.2 -1.5,7.4 -3.5,7.4 -0.8,0 -3.3,2.5 -5.5,5.5 -2.2,3 -4.5,5.5 -5,5.5 -0.5,0 -1.2,1.1 -1.6,2.5 -0.7,3 -19.9,21.7 -24.3,23.6 -1.7,0.8 -3.1,2 -3.1,2.8 0,2.5 -14.5,15.8 -18.6,17.1 -2.1,0.7 -4.5,1.9 -5.2,2.7 -1.4,1.4 -8.2,1.8 -8.2,0.5 z"
       id="path31"
       style="display:inline" />
    <path
       d="m 182,518.2 c 0,-0.4 0.5,-1.3 1.2,-2 0.9,-0.9 0.9,-1.2 0,-1.2 -3.1,0 -0.1,-3.7 13.2,-16.3 10,-9.5 15.1,-13.7 16.7,-13.7 2,0 0.8,1.6 -7.1,9.8 l -9.5,9.7 10,-9.7 c 5.5,-5.4 10.6,-9.8 11.3,-9.8 0.6,0 1.2,1.2 1.2,2.7 0,3.8 -2.2,9.3 -3.7,9.3 -0.8,0 -5,3.6 -9.4,8 -4.5,4.4 -8.4,8 -8.8,8 -0.5,0 -2.2,1.4 -3.9,3 -2.5,2.3 -4.1,3 -7.2,3 -2.2,0 -4,-0.4 -4,-0.8 z"
       id="path29"
       style="display:inline" />
  </g>
  <g
     fill="#1e84f2"
     id="g55"
     style="display:inline"
     inkscape:label="Bleu">
    <path
       d="m 171.1,513.9 c -33.2,-4.3 -70.3,-34.1 -80.2,-64.4 -3.3,-10 -3.1,-21.6 0.4,-30.7 4.8,-12.4 15.8,-26 31.9,-39.4 16.4,-13.7 59.2,-40.4 64.7,-40.4 1.4,0 1.6,2.3 1.7,22.3 0,18.2 0.4,24.7 2.3,36.2 4.1,25.2 15,63.5 22.1,77.5 1.7,3.3 3,6.5 3,7.2 0,0.7 -7.1,8.4 -15.8,17.1 -17.6,17.6 -15.4,16.5 -30.1,14.6 z"
       id="path55" />
  </g>
  <g
     fill="#e59b0f"
     id="g81"
     style="display:inline"
     inkscape:label="Jaune foncé">
    <path
       d="m 299.3,844 c -20.4,-6 -34.5,-20.4 -39.8,-40.5 -2.3,-9 -2,-23.4 0.6,-29.3 5.7,-12.6 7.4,-15.6 12.1,-20.8 7.1,-7.6 12.1,-10.9 23,-14.5 7.8,-2.7 10.8,-3.2 18.3,-3.2 11.1,0.1 16.6,1.3 26.2,6 14,6.8 24.9,21.9 27.9,38.4 3.3,17.9 -1.5,35.6 -13,47.7 -14.4,15.4 -36.3,21.8 -55.3,16.2 z m 18,-11.7 c -1.3,-0.2 -3.5,-0.2 -5,0 -1.6,0.2 -0.5,0.4 2.2,0.4 2.8,0 4,-0.2 2.8,-0.4 z m 6.7,-17.4 c 7.2,-3.4 9.8,-5.9 13.2,-12.8 3.2,-6.5 3.2,-16.8 -0.1,-23.1 -5.1,-9.7 -13.5,-14.9 -23.9,-15 -9.4,0 -17.6,4.8 -23.4,13.9 -2.5,4 -2.8,5.4 -2.8,12.3 0,12.4 4.5,19.4 16.1,24.7 8.3,3.9 12.7,3.9 20.9,0 z m -50.9,-27.1 -0.7,-3.3 -0.8,3.7 c -0.3,2 -0.3,4.9 0.1,6.5 l 0.7,2.8 0.7,-3.2 c 0.3,-1.8 0.3,-4.8 0,-6.5 z m 81.6,0 c -0.2,-1.8 -0.4,-0.6 -0.4,2.7 0,3.3 0.2,4.8 0.4,3.3 0.2,-1.5 0.2,-4.2 0,-6 z M 319,749 c -0.8,-0.5 -3.1,-1 -5,-1 -1.9,0 -4.2,0.5 -5,1 -1.1,0.7 0.4,1 5,1 4.6,0 6.1,-0.3 5,-1 z"
       id="path56" />
    <path
       d="m 657,845 c -9,-1.4 -20.9,-7.2 -28.2,-13.8 -4.9,-4.5 -11.2,-13.5 -13.4,-19.3 -0.9,-2.4 -2.1,-5.4 -2.6,-6.6 -1,-2.1 -0.6,-23.8 0.6,-28.9 2.3,-10.6 10.4,-23 19,-29.5 6,-4.6 16,-9.5 21.8,-10.9 2.4,-0.5 7.9,-1 12.3,-1 23.7,0 43.6,14 52.5,37.1 2.5,6.6 3,9.2 3,16.6 0,13.2 -1.3,19.1 -6.2,27.8 -7.6,13.7 -19.8,23.5 -34.7,27.9 -5.6,1.6 -15.9,1.9 -24.1,0.6 z m 15.4,-12.8 c 0.2,-0.4 -1.2,-0.6 -3.2,-0.4 -6.2,0.6 -6.9,1 -2,1.1 2.6,0 4.9,-0.3 5.2,-0.7 z m 6.6,-18 c 4.2,-2.1 6.5,-4.2 9.5,-8.6 3.6,-5.2 4,-6.4 4.3,-13.2 0.7,-12.4 -3.5,-19.7 -14.9,-25.9 -4.6,-2.4 -5.9,-2.7 -11.9,-2.3 -10.2,0.8 -18.5,6.2 -23.3,15.3 -1.7,3.1 -2.1,5.6 -2,11.1 0.2,11 5.1,19.1 14.5,23.8 7.4,3.7 16.2,3.6 23.8,-0.2 z m -53.3,-26.4 c -0.2,-1.8 -0.4,-0.6 -0.4,2.7 0,3.3 0.2,4.8 0.4,3.3 0.2,-1.5 0.2,-4.2 0,-6 z m 83.2,2 -0.2,-4.3 -0.6,3.5 c -0.7,3.3 -0.5,5 0.5,5 0.2,0 0.3,-1.9 0.3,-4.2 z m -38.1,-40.5 c -1.5,-0.2 -4.2,-0.2 -6,0 -1.8,0.2 -0.6,0.4 2.7,0.4 3.3,0 4.8,-0.2 3.3,-0.4 z"
       id="path57" />
    <path
       d="m 841.8,778.3 c -1.6,-0.4 -1.8,-2.2 -1.8,-18.6 0,-10 -0.3,-19.9 -0.6,-22 -0.6,-3.1 -0.4,-3.6 0.8,-3.2 1.2,0.5 1.6,-0.6 2.1,-4.7 0.9,-6.9 0.9,-31.2 0,-46.6 L 841.7,671 H 822.8 804 v 28.5 c 0,24.7 0.2,28.5 1.5,28.5 0.8,0 1.5,0.7 1.5,1.5 0,1.2 -1.3,1.5 -5.9,1.5 -5.4,0 -6.2,-0.3 -7.9,-2.7 -1,-1.6 -7.6,-14 -14.6,-27.7 C 768.2,680.2 766,675 766.2,672.1 l 0.3,-3.6 17.3,-0.3 17.2,-0.2 v -2.4 c 0,-1.3 -0.7,-2.7 -1.6,-3 -2.7,-1 -31.4,-0.7 -31.4,0.4 0,1.3 -7.3,1.3 -8.6,0 -0.7,-0.7 -23.3,-1 -69.2,-0.8 -64.4,0.3 -68.2,0.2 -68.2,-1.4 0,-1.7 -1.9,-1.8 -26.1,-1.8 h -26.1 l 0.7,-3.1 c 0.4,-1.8 1.9,-6.2 3.4,-9.8 l 2.6,-6.6 11.8,-0.3 c 9.5,-0.2 11.7,-0.5 11.7,-1.7 0,-0.8 0.7,-1.5 1.5,-1.5 0.9,0 1.5,-1 1.6,-2.7 0.1,-1.7 0.3,-2.1 0.6,-1 0.9,3.4 2.8,1.6 5,-4.5 2,-5.8 2.1,-6.4 0.6,-7.5 -1.8,-1.4 -1.8,-1.5 1.5,-3.2 1.5,-0.8 2.2,-2.1 2.2,-4.2 0,-3.6 4.3,-26.6 6.6,-35.4 0.8,-3.3 2.4,-7.9 3.4,-10.2 1.9,-4.2 1.9,-4.3 -0.1,-4.3 -2.8,0 -2.1,-3.2 0.9,-4.1 0.8,-0.3 3.8,-8.3 6.9,-17.9 3,-9.6 7.1,-22.4 9.1,-28.5 l 3.7,-11 7.5,-0.6 c 4.1,-0.4 25.8,-0.7 48.2,-0.8 l 40.7,-0.1 -2.4,2.5 c -2.9,2.8 -3.2,4.5 -0.9,4.5 3.3,0 9.4,2.4 9.4,3.6 0,1.1 -7.9,1.4 -42.2,1.6 l -42.1,0.3 -2.3,8.5 c -1.3,4.7 -3.5,13 -4.9,18.5 -5,19.9 -5.8,22 -8.8,22.3 -2.6,0.3 -2.7,0.5 -2.7,6.7 v 6.3 l 59.3,-0.6 c 54.6,-0.5 59.4,-0.4 60,1.1 0.5,1.3 0.1,1.7 -1.4,1.7 -1.5,0 -1.9,0.5 -1.5,1.8 0.3,0.9 0.8,2.9 1.2,4.5 0.3,1.5 1.2,2.7 2,2.7 0.8,0 1.4,0.7 1.4,1.5 0,0.8 0.7,1.5 1.5,1.5 0.8,0 1.5,0.7 1.5,1.5 0,0.8 -0.7,1.5 -1.5,1.5 -1.8,0 -1.5,2.3 1.2,13.5 0.8,3.3 1.7,7 2,8.3 0.3,1.2 1.4,2.7 2.4,3.3 2.5,1.3 2.4,3.5 -0.3,4.2 -1.8,0.5 -1.9,0.9 -0.9,2.1 0.7,0.8 1.1,3.4 1,5.7 -0.4,4.8 1.5,6.4 3.8,3.3 1.2,-1.6 1.3,-1.6 1.3,1 v 2.9 l 10,-0.5 c 8.8,-0.4 10,-0.3 10,1.2 0,1.2 0.9,1.6 3.6,1.6 1.9,0 3.9,0.6 4.3,1.3 0.5,0.7 0.6,5.3 0.3,10.2 l -0.5,8.9 h 23.2 23.1 v -10 -9.9 l -11.2,-0.3 -11.3,-0.3 -2.2,-9.5 c -1.2,-5.2 -1.9,-9.7 -1.6,-10 0.2,-0.3 8.2,-0.5 17.6,-0.5 h 17.2 l 0.3,78.8 c 0.2,69 0.4,78.7 1.7,78.7 0.8,0 1.5,0.7 1.5,1.5 0,1.2 -1.6,1.5 -9.2,1.4 -5.1,-0.1 -10.1,-0.3 -11,-0.6 z M 690.5,502 c 0.8,-1.2 -15.2,-1.3 -21,-0.1 -3,0.7 -1,0.9 8.2,1 7.2,0.1 12.4,-0.3 12.8,-0.9 z"
       id="path58" />
    <path
       d="m 921,723 c 0,-10.4 0.3,-13 1.4,-13 1.9,0 2.6,3.2 2.6,13 0,9.8 -0.7,13 -2.6,13 -1.1,0 -1.4,-2.6 -1.4,-13 z"
       id="path59" />
    <path
       d="m 865.6,730.8 c -0.3,-1.3 -0.6,-4.8 -0.6,-7.8 0,-6.9 0.8,-10 2.6,-10 1.1,0 1.4,2.2 1.4,10 0,7.8 -0.3,10 -1.4,10 -0.7,0 -1.6,-1 -2,-2.2 z"
       id="path60" />
    <path
       d="m 663,503.27966 v -2.72936 h 15.6 15.5 l -0.3,2.5474 -0.3,2.45643 -15.2,0.27293 L 663,506.1 Z"
       id="path52"
       style="display:inline;stroke-width:0.953827" />
    <path
       d="m 152.3,688 c -0.9,-1.6 -2.1,-3 -2.5,-3 -0.4,0 -0.8,-0.7 -0.8,-1.5 0,-0.8 0.4,-1.5 0.9,-1.5 0.5,0 4.3,-2 8.5,-4.5 4.2,-2.4 10.8,-6.3 14.6,-8.5 l 7.1,-4 1.5,3.5 c 1.6,4 1.8,9.8 0.4,12.6 -0.6,1 -4.7,3.7 -9,5.9 -6.4,3.2 -9,4 -13.4,4 -5,0 -5.6,-0.2 -7.3,-3 z"
       id="path61" />
    <path
       d="m 921,665.5 c 0,-8.3 0.3,-10.5 1.4,-10.5 1.8,0 2.6,3.1 2.6,10.5 0,7.4 -0.8,10.5 -2.6,10.5 -1.1,0 -1.4,-2.2 -1.4,-10.5 z"
       id="path62" />
    <path
       d="m 934.8,670.3 -3.8,-0.4 v -5.5 -5.4 h 9 9 v 6 6 l -5.2,-0.2 c -2.9,-0.1 -7,-0.3 -9,-0.5 z"
       id="path63" />
    <path
       d="m 189.6,665.9 c -2.6,-3.9 -2.7,-4.1 -0.9,-5.5 2.4,-1.9 16.4,-10 24,-14 6.1,-3.2 6.1,-3.2 6.7,-1.1 0.3,1.2 0.6,5.2 0.6,8.8 v 6.5 l -8.4,4.7 c -7.2,4 -9.3,4.7 -13.9,4.7 -5.3,0 -5.5,-0.1 -8.1,-4.1 z"
       id="path64" />
    <path
       d="m 228.1,645.3 c -1.7,-2.1 -3.1,-4.2 -3.1,-4.8 0,-1.3 24,-15 26.2,-14.9 0.9,0 1.5,-0.2 1.3,-0.6 -0.2,-0.3 0.5,-1.1 1.5,-1.8 2.7,-1.7 4,1.1 4,8.7 0,7.1 -0.3,7.5 -10.4,13 -10.1,5.6 -15.1,5.7 -19.5,0.4 z"
       id="path65" />
    <path
       d="m 161,628.8 c -11.8,-20.6 -13,-23 -13,-26.9 0,-3.5 0.7,-4.5 7.1,-10.6 3.9,-3.8 11,-10.6 15.8,-15.3 21.9,-21.4 67.6,-65.7 69.5,-67.3 1.2,-1 8.6,-8.2 16.6,-16 19.5,-18.9 40.2,-38.9 53.5,-51.7 6.1,-5.8 23.4,-22.4 38.5,-37 15.1,-14.6 32.6,-31.4 38.9,-37.5 6.3,-6 20.1,-19.5 30.8,-29.9 10.6,-10.4 20.9,-20.2 22.8,-21.9 1.9,-1.6 3.5,-3.9 3.5,-5 0,-1.9 0.1,-1.9 1.9,-0.3 1,0.9 2.1,2.9 2.4,4.4 0.2,1.5 2.8,7.9 5.7,14.2 2.8,6.3 5.4,12.2 5.7,13 0.4,1.4 -15,17.1 -39.2,40 -4.4,4.1 -20.1,19.2 -35,33.5 -14.8,14.3 -32.6,31.4 -39.5,37.9 -26.1,25 -35,34 -35,35.7 0,1 1.2,3.1 2.8,4.7 1.5,1.6 4.5,4.9 6.8,7.3 2.2,2.4 5.9,5.9 8.2,7.7 l 4.2,3.3 2.6,-2 c 1.5,-1.2 18.2,-17 37.2,-35.3 91.7,-88.2 100.2,-96.3 101.7,-96.6 0.8,-0.2 2.4,1.8 3.9,5.3 1.4,3 2.6,5.8 2.6,6.1 0,0.2 1.3,3.2 3,6.7 3.2,6.8 15.8,34.9 19.6,43.7 1.3,3 2.4,6.3 2.4,7.2 0,1.5 -11.5,9.9 -15.9,11.6 -0.9,0.3 -7,3.7 -13.6,7.5 -6.6,3.8 -13.6,7.8 -15.5,8.9 -1.9,1.1 -9.6,5.5 -17,9.8 -7.4,4.2 -16.2,9.2 -19.5,11 -3.3,1.8 -7.3,4.1 -9,5 -8.5,4.8 -21.6,12.2 -26.5,14.9 -3,1.7 -11.1,6.3 -18,10.2 -21.4,12.2 -33.3,18.9 -33.7,18.9 -0.2,0 -2,1.1 -4.1,2.3 -2,1.3 -5.9,3.6 -8.7,5.2 -8.9,5 -17,9.6 -18.5,10.6 -2.1,1.3 -28.2,15.9 -28.5,15.9 -0.2,0 -7.4,4.1 -16.1,9.1 -8.8,5.1 -18.6,10.6 -21.9,12.4 -3.3,1.7 -16.2,9.1 -28.7,16.3 -30.1,17.4 -39.4,22.2 -42.8,22.2 -2.4,0 -3.3,-1.1 -8,-9.2 z"
       id="path66" />
    <path
       d="m 266.2,623.5 c -3.7,-4 -3.9,-4.7 -1.4,-6 1,-0.6 3.8,-2.3 6.3,-3.8 10.2,-6.5 18,-10.8 18.8,-10.3 0.5,0.3 1.1,-0.1 1.5,-0.9 1.9,-5.1 6.1,3.2 5.4,11 -0.3,3.9 -0.6,4.1 -8.8,8.7 -7,4 -9.4,4.8 -13.6,4.8 -4.5,0 -5.4,-0.4 -8.2,-3.5 z"
       id="path67" />
    <path
       d="m 830,616 c 0,-0.5 0.7,-1 1.5,-1 0.8,0 1.5,0.5 1.5,1 0,0.6 -0.7,1 -1.5,1 -0.8,0 -1.5,-0.4 -1.5,-1 z"
       id="path68" />
    <path
       d="m 835.5,616 c -0.4,-0.6 4,-1 12.4,-1 7.6,0 13.2,0.4 13.6,1 0.4,0.6 -4,1 -12.4,1 -7.6,0 -13.2,-0.4 -13.6,-1 z"
       id="path69" />
    <path
       d="m 305.1,603.4 c -4.6,-5.8 -3.9,-7.4 5.4,-12.5 2.2,-1.2 6,-3.3 8.5,-4.7 11.5,-6.4 13.3,-7.2 13.9,-6.7 0.3,0.4 0.8,4.2 1,8.5 l 0.3,7.9 -4.8,3 c -2.7,1.6 -6.4,3.9 -8.2,5 -2.3,1.5 -5,2.1 -8.7,2.1 -4.6,0 -5.7,-0.4 -7.4,-2.6 z"
       id="path70" />
    <path
       d="m 345.7,583.9 c -2.1,-1.3 -4.7,-6.1 -4.7,-9 0,-1.6 0.5,-2 2,-1.6 1.1,0.3 1.8,0.1 1.5,-0.3 -0.5,-0.8 13.5,-9.5 22.2,-13.9 l 4.2,-2.1 1,3.8 c 1.7,5.8 1.4,11.7 -0.6,13.5 -1,0.8 -5.2,3.6 -9.3,6.1 -7.6,4.7 -12.4,5.7 -16.3,3.5 z"
       id="path71" />
    <path
       d="m 383.8,561.8 c -0.8,-0.7 -2.5,-2.8 -3.8,-4.7 l -2.3,-3.4 2.4,-1.8 c 1.3,-1.1 4,-2.7 5.9,-3.6 1.9,-0.9 4.6,-2.4 6,-3.4 1.4,-0.9 5.6,-3.3 9.4,-5.3 8.6,-4.6 9.6,-4 9.6,5.5 0,7.7 0,7.8 -12.3,14.3 -7.1,3.7 -12.2,4.5 -14.9,2.4 z"
       id="path72" />
    <path
       d="m 421.8,539.8 c -2,-1.7 -4.8,-5.9 -4.8,-7.4 0,-1.1 6.3,-5.2 18.4,-11.9 5.5,-3 7.3,-3.6 8.7,-2.7 1.4,0.9 1.6,0.8 1.2,-0.7 -0.7,-2.8 1.4,-3.4 3.1,-0.9 1,1.3 1.6,4.3 1.6,7.3 0,6 -0.9,7.1 -11.3,13.4 -7.1,4.3 -13.7,5.4 -16.9,2.9 z"
       id="path73" />
    <path
       d="m 458.1,515.3 c -1.7,-2.1 -3.1,-4.2 -3.1,-4.8 0,-1 16.4,-11.5 18,-11.5 0.5,0 3.7,-1.6 7.1,-3.6 5.9,-3.5 6.3,-3.6 7.6,-1.9 0.7,1.1 1.3,4.5 1.3,8.2 0,5.7 -0.2,6.4 -2.7,8 -1.6,0.9 -4.9,3.4 -7.4,5.5 -4.4,3.5 -5.1,3.8 -11.2,3.8 -6.3,0 -6.7,-0.1 -9.6,-3.7 z"
       id="path74" />
    <path
       d="m 496.6,493.7 c -2.6,-3.4 -3.4,-6.7 -1.7,-6.7 0.6,0 2.9,-1.3 5.3,-2.9 2.4,-1.5 7.5,-4.5 11.3,-6.6 3.9,-2.1 7.5,-4.1 8,-4.5 0.6,-0.5 2.4,-1 4,-1.2 l 3,-0.3 0.3,6.9 0.3,6.8 -5.2,4.8 c -5.4,5 -7.6,5.8 -17,6.7 -5.5,0.5 -5.7,0.4 -8.3,-3 z"
       id="path75" />
    <path
       d="m 616,464.3 c 0,-1.9 1,-3.9 3,-5.8 5.5,-5.2 8.3,-10.2 7.7,-13.4 -0.7,-3.4 -6.8,-17.3 -7.4,-16.8 -0.2,0.2 0.6,2.5 1.7,5.1 1.1,2.6 2,6.3 2,8.2 0,3.3 -0.1,3.4 -4,3.6 -2.2,0.1 -4.7,0.2 -5.6,0.2 -2,0.1 -4.1,-3.8 -14.3,-26.9 -4.3,-9.9 -12.2,-27.7 -17.4,-39.5 -9.7,-22 -13.8,-31.6 -14.1,-33.7 -0.1,-0.7 -0.5,-1.6 -0.9,-1.9 -1.8,-1.8 -0.1,-2.4 6.8,-2.4 6.4,0 7.4,-0.2 6.8,-1.6 -0.3,-0.9 -1.5,-2 -2.7,-2.4 -2.1,-0.9 -2.1,-0.9 0.2,-0.9 2.7,-0.1 2.7,-0.1 0.3,-5.9 -1,-2.6 -2.4,-6.2 -3.1,-8 -0.7,-1.8 -2.5,-4.6 -4.1,-6.3 -1.5,-1.6 -3,-3.5 -3.2,-4.2 -0.3,-0.7 -0.6,-0.5 -0.6,0.6 -0.1,1.4 -1.1,1.7 -6.9,1.7 -7.9,0 -6.6,1.5 -13.2,-15 -2.3,-5.8 -5.5,-13.2 -7,-16.5 -7.1,-15.7 -10.3,-23.1 -16,-36.5 -3.4,-8 -7.1,-16.5 -8.2,-19 -1.1,-2.5 -2.3,-5.4 -2.8,-6.5 -3.2,-8.2 -4.5,-10.4 -6.1,-10.8 -1.4,-0.4 -2.1,0.1 -2.5,1.9 -1,3.9 -3.4,3 -3.4,-1.3 0.1,-3 1.3,-5.4 5.8,-11.4 6.5,-8.8 37.7,-47.7 49.7,-62 9.7,-11.7 17.5,-21.6 17.5,-22.4 0,-0.3 -3.8,-0.5 -8.4,-0.5 h -8.5 l -10.3,13.1 c -5.7,7.2 -13.9,17.5 -18.3,22.8 -4.4,5.3 -12.6,15.5 -18.2,22.6 -5.6,7.2 -14,17.7 -18.6,23.5 l -8.5,10.5 7.3,0.3 7.3,0.3 0.6,3.4 c 0.4,1.8 2.5,7.3 4.7,12.2 2.2,4.8 4.6,10.2 5.3,11.8 0.7,1.7 3.6,8.2 6.4,14.5 2.8,6.3 6.3,14.7 7.8,18.5 1.4,3.9 5.9,14 10,22.6 4,8.6 7.6,17.5 8,19.8 l 0.7,4.1 h -10.5 -10.5 l -3.8,-8.7 c -2.1,-4.9 -7.1,-16 -11,-24.8 -4,-8.8 -10.5,-23.4 -14.5,-32.5 -16.5,-37.6 -16.1,-37 -18.7,-37 -2.2,0 -2.7,0.9 -2.4,3.7 0.1,0.7 -0.5,1.3 -1.4,1.3 -0.8,0 -1.5,0.4 -1.5,0.9 0,0.6 2.9,7.6 6.5,15.6 3.6,8.1 6.5,14.8 6.5,15 0,0.2 1.8,4.3 4.1,9.2 5.5,11.9 6.1,13.3 10.8,24.8 2.3,5.5 6,13.7 8.1,18.3 2.2,4.5 4,9.5 4,11.1 0,2.7 -0.2,2.8 -5.7,3 -3.1,0.1 -5.8,0.3 -6,0.5 -0.2,0.1 1.3,3.9 3.2,8.3 1.9,4.5 3.5,8.7 3.5,9.5 0,3 2.4,3.8 11.7,3.8 8.1,0 9.4,0.2 10.3,2 1,1.8 0.6,1.9 -6.2,2.3 l -7.3,0.3 7.6,0.2 7.5,0.2 2.7,5.8 c 1.4,3.1 7.4,16.5 13.3,29.7 5.8,13.2 11.9,26.7 13.4,30 1.5,3.3 4.6,10.3 6.8,15.5 3.8,9.1 8.6,19.9 11.9,26.8 0.9,1.8 1.6,3.8 1.6,4.5 0,0.7 1.5,1.2 3.9,1.2 3.2,0 3.8,-0.3 3.4,-1.7 -0.2,-1.1 0.1,-1.8 1,-1.8 0.9,0 1.4,1.2 1.4,3.6 v 3.6 l -6.8,-0.4 c -6.7,-0.3 -6.8,-0.4 -12.6,-6.1 -7.2,-7 -9.9,-7.4 -10.4,-1.2 -0.2,2.2 -0.8,4.5 -1.4,5.2 -1.3,1.7 -6.2,1.8 -5.2,0.1 0.4,-0.6 0.6,-3.9 0.5,-7.4 -0.2,-6.3 -1.6,-9.8 -15,-38.7 -1.7,-3.7 -3.1,-6.9 -3.1,-7.2 0,-0.8 -20.5,-46.1 -32.1,-71 -2,-4.4 -7.2,-15.9 -11.4,-25.5 -12.4,-28.1 -15.7,-35.4 -24.1,-53.8 -1.9,-4.1 -3.4,-7.6 -3.4,-7.9 0,-0.3 -1.1,-2.9 -2.4,-5.7 -9,-19.3 -9.4,-20.5 -7.7,-27.3 1.5,-5.9 6.7,-13.7 20.8,-31.3 5.9,-7.3 17.1,-21.4 24.8,-31.1 7.7,-9.7 18.7,-23.5 24.5,-30.7 l 10.5,-13.1 40.5,-0.3 c 22.3,-0.2 40.9,0 41.4,0.4 0.6,0.5 0.2,1.8 -1,3.2 -1,1.4 -8.9,11.2 -17.4,21.8 -8.6,10.6 -19.6,24.4 -24.5,30.7 -5,6.2 -13.2,16.6 -18.3,23 -18.8,23.4 -17.7,21.6 -17.7,29 0.1,7.2 -1.5,3.4 24.5,60.6 4.5,9.9 11.7,25.9 16,35.5 4.3,9.6 10.8,24.3 14.5,32.5 3.7,8.3 9.8,22 13.5,30.5 3.8,8.5 11.2,25 16.5,36.5 12.4,27.1 15.5,34.8 15.5,38.9 0,4.7 -3.8,9.3 -14.2,16.9 l -3.8,2.9 z M 529.4,201 c 0.5,-0.8 3.5,-4.6 6.6,-8.5 3,-3.8 6.9,-8.8 8.5,-11 1.6,-2.2 3.2,-4.2 3.5,-4.5 0.7,-0.6 16.4,-20.3 28.5,-36 4.4,-5.6 10.8,-13.8 14.3,-18.1 3.4,-4.3 6.2,-8 6.2,-8.4 0,-0.3 -1.3,-0.5 -3,-0.5 -1.6,0 -3,0.3 -3,0.8 0,0.4 -1,1.8 -2.2,3.2 -1.3,1.4 -3.6,4.3 -5.3,6.5 -1.6,2.2 -5.5,6.9 -8.7,10.5 -3.2,3.6 -9.3,11.1 -13.5,16.6 -4.3,5.6 -10.6,13.7 -14.1,18 -10.9,13.7 -22.6,28.4 -26.1,32.7 l -3.3,4.2 2.3,0.5 c 1.9,0.5 2.9,2.1 4.9,7.4 l 2.5,6.8 0.5,-9.3 c 0.3,-5.2 0.9,-10.1 1.4,-10.9 z m -61.1,3.5 c 1.1,-1.6 5.3,-7 9.2,-12 4,-4.9 9.6,-12.2 12.6,-16.1 3,-3.9 11.9,-15.1 19.9,-24.9 8,-9.8 15.6,-19.2 17,-20.9 1.3,-1.7 4.8,-5.9 7.7,-9.4 2.9,-3.4 5.3,-6.4 5.3,-6.7 0,-0.3 -1.3,-0.5 -2.9,-0.5 -3.4,0 -6.9,3.3 -17.8,17.1 -3.7,4.8 -10.1,12.6 -14,17.5 -16.9,20.7 -45.3,56.8 -45.3,57.6 0,0.4 0.8,0.8 1.9,0.8 1.3,0 2.1,1 2.6,3.3 l 0.8,3.2 0.5,-3 c 0.2,-1.6 1.3,-4.3 2.5,-6 z"
       id="path76" />
    <path
       d="m 596.1,450.5 c -3.9,-4 -4.9,-4.5 -8.8,-4.5 -2.3,0 -4.3,0.5 -4.3,1 0,1.8 -1.6,1.1 -2.8,-1.2 -2.8,-5.9 -8.2,-17.8 -8.2,-18.3 0,-0.3 -2.2,-5.2 -4.9,-10.8 -4.7,-9.8 -14.2,-30.4 -18.4,-39.7 -1.1,-2.5 -3,-6.7 -4.2,-9.5 -7,-15.3 -11.5,-25.5 -11.5,-26 0,-0.3 3.5,-0.5 7.9,-0.5 7,0 7.9,-0.2 8.4,-2 0.4,-1.5 1.4,-2 3.6,-2 2.8,0 3.3,0.6 7,8.3 5.4,11.4 9.1,19.7 9.1,20.3 0,0.3 1,2.6 2.1,5.2 1.2,2.6 3.4,7.6 5,11.2 3.4,8.1 10.3,23.9 20.9,48.5 4.5,10.5 8.3,19.8 8.4,20.8 0,1 0.8,2.2 1.6,2.7 1.1,0.7 0.4,1 -2.5,1 -3.4,0 -4.6,-0.7 -8.4,-4.5 z"
       id="path77" />
  </g>
  <g
     fill="#fa2522"
     id="g82"
     style="display:inline"
     inkscape:label="Rouge">
    <path
       d="m 266,326.4 c -22.1,-33 -68.2,-74.2 -100.8,-90.1 -5.2,-2.5 -9.6,-5.2 -9.9,-5.9 -0.3,-0.8 0,-4.8 0.5,-9 1.6,-11.9 6.3,-20.5 15.4,-28.2 8.1158,-6.45453 17.71082,-12.28217 27.8,-15.3 15.8,-3.9 26.19415,-4.70042 38.03891,-4.59498 C 249.63556,173.33264 258.2,174.8 264,176.9 c 21.9,7.6 35,18.9 40.4,34.6 3.8,11.1 2.8,33.7 -2.5,54.7 -4.8,19.1 -21.7,60.6 -27.5,67.6 l -1.9,2.3 z"
       id="path82"
       sodipodi:nodetypes="ccccccccccccc" />
  </g>
  <g
     fill="#b56c13"
     id="g103"
     style="display:inline"
     inkscape:label="Marron">
    <path
       d="m 704.2,795.8 c -0.3,-5.6 0.9,-10.8 2.4,-10.8 0.8,0 1.4,-1 1.4,-2.5 0,-3 1.5,-3.3 3,-0.6 1.6,3.1 1.3,12.1 -0.4,12.1 -0.8,0 -1.6,1 -1.8,2.3 -0.2,1.3 -1.1,2.3 -2.4,2.5 -1.7,0.2 -2.1,-0.3 -2.2,-3 z"
       id="path83" />
    <path
       d="m 272,791.5 c 0,-5 0.4,-6.7 1.5,-7.2 2.4,-0.9 3,0.3 3.2,7.3 0.2,6.2 0.1,6.4 -2.2,6.4 -2.4,0 -2.5,-0.3 -2.5,-6.5 z"
       id="path84" />
    <path
       d="m 821.6,776.3 c -1.7,-9 -5.6,-39.3 -5.6,-43.5 0,-2.4 0.3,-2.7 1.8,-2 0.9,0.5 6.2,1.5 11.7,2.2 5.5,0.7 10.8,1.7 11.8,2.2 1.5,0.8 1.7,2.8 1.7,20.3 v 19.3 l 3,0.7 c 1.7,0.4 3,1.3 3,2.1 0,1.1 -2.5,1.4 -13.4,1.4 h -13.4 z"
       id="path85" />
    <path
       d="m 829.2,700.4 c -0.2,-5.8 -0.1,-6.5 1.5,-6.2 2.1,0.4 2.8,4.3 1.8,9.5 -1.1,5.8 -3,3.9 -3.3,-3.3 z"
       id="path86" />
    <path
       d="m 125.3,697.3 c 1.4,-1.7 4,-3.1 10.7,-6.2 1.7,-0.7 15.8,-1.2 44.5,-1.3 l 42,-0.3 0.3,4.5 c 0.2,4.1 0.1,4.3 -1.2,2.6 -0.8,-1 -1.8,-1.6 -2.3,-1.3 -0.4,0.3 -15.6,1 -33.8,1.6 -18.1,0.6 -39.5,1.3 -47.4,1.6 -13.7,0.5 -14.4,0.4 -12.8,-1.2 z"
       id="path87" />
    <path
       d="m 763.2,670.5 c -1.2,-2.5 -2.2,-6.2 -2.2,-8.1 0,-3.3 0.2,-3.5 1.7,-2.3 1.3,1.1 1.7,1.1 2,0.2 0.4,-1 4.9,-1.3 18.3,-1.3 9.8,0 18.5,0.3 19.4,0.6 1.2,0.5 1.6,2 1.6,6 v 5.4 l -17.2,0.2 c -15.8,0.3 -17.3,0.5 -17.2,2.1 0.1,1.1 -0.5,1.7 -2,1.7 -1.6,0 -2.8,-1.2 -4.4,-4.5 z"
       id="path88" />
    <path
       d="m 164,635.3 c -2.9,-3.7 -17.1,-26.6 -19.9,-32.1 -1.5,-3 -2,-5.3 -1.6,-7.2 0.5,-2.1 6.8,-8.8 21.8,-23.2 11.7,-11.1 28.2,-27 36.7,-35.3 8.5,-8.3 28.3,-27.5 44,-42.5 15.7,-15.1 40.2,-38.7 54.5,-52.5 14.3,-13.8 36.6,-35.2 49.5,-47.5 24.2,-23.1 36.3,-34.7 60.5,-58.1 22,-21.3 31.6,-29.9 33.5,-29.9 2.2,0 5,3.1 5,5.7 0,1.1 -1.6,3.4 -3.5,5 -1.9,1.7 -12.2,11.5 -22.8,21.9 -10.7,10.4 -24.5,23.9 -30.8,29.9 -6.3,6.1 -23.8,22.9 -38.9,37.5 -15.1,14.6 -32.4,31.2 -38.5,37 -13.3,12.8 -34,32.8 -53.5,51.7 -8,7.8 -15.4,15 -16.6,16 -2.3,2 -55.5,53.6 -69.4,67.3 -4.7,4.7 -11.1,10.8 -14.1,13.5 -10,9.1 -9.7,8.5 -5.9,15.7 1.9,3.5 5.1,9.1 7.1,12.5 3.9,6.3 8.9,15.8 8.9,16.8 0,1.6 -4.2,0.1 -6,-2.2 z"
       id="path89" />
    <path
       d="m 662,635.5 c 0,-0.8 0.7,-1.5 1.5,-1.5 1.2,0 1.5,-1.4 1.5,-6.5 0,-5.8 -0.2,-6.5 -2,-6.5 -1.4,0 -2,-0.7 -2,-2.1 0,-1.7 0.5,-2 3.8,-1.7 l 3.7,0.3 0.3,9.8 0.3,9.7 h -3.6 c -2.4,0 -3.5,-0.4 -3.5,-1.5 z"
       id="path90" />
    <path
       d="m 686.7,622.8 c -0.6,-10.5 0,-33.5 0.9,-34.9 0.9,-1.6 64.7,-0.5 65.2,1.1 0.2,0.5 1.2,1 2.3,1 1,0 1.9,0.5 1.9,1 0,0.6 -0.7,1 -1.5,1 -1.2,0 -1.5,1.4 -1.5,6.5 0,5.8 -0.2,6.5 -2,6.5 -1.7,0 -2,-0.7 -2,-4.2 0,-2.4 -0.3,-5.3 -0.6,-6.6 l -0.6,-2.2 -28.7,0.2 -28.6,0.3 -0.3,6.3 c -0.2,5.1 0,6.2 1.3,6.2 0.8,0 1.5,0.7 1.5,1.5 0,0.8 -0.9,1.5 -2.1,1.5 -1.9,0 -2,0.3 -1.3,11 0.7,10.7 0.6,11 -1.4,11 -1.8,0 -2.1,-0.7 -2.5,-7.2 z"
       id="path91" />
    <path
       d="m 775,623 c 0,-5.3 0.3,-7 1.4,-7 1.7,0 2.6,3.1 2.6,9.3 0,4 -0.3,4.7 -2,4.7 -1.8,0 -2,-0.7 -2,-7 z"
       id="path92" />
    <path
       d="m 665,604.4 c 0,-9.1 1,-13.4 3,-13.4 0.6,0 1,4.8 1,11.5 0,10.8 -0.1,11.5 -2,11.5 -1.9,0 -2,-0.7 -2,-9.6 z"
       id="path93" />
    <path
       d="M 640,582.5 V 576 h 3.4 c 1.9,0 3.8,0.5 4.1,1 0.3,0.6 -0.3,1 -1.5,1 -1.7,0 -2,0.4 -1.5,2 1.1,3.4 -0.5,9 -2.6,9 -1.7,0 -1.9,-0.8 -1.9,-6.5 z"
       id="path94" />
    <path
       d="m 533,519.7 c 0,-3 0.5,-4.5 1.9,-5.4 2.4,-1.5 10.4,-2.7 13,-1.8 2.3,0.7 2.9,3.5 0.9,3.5 -2.2,0.1 -5.8,3.7 -5.8,5.9 0,1.9 -0.6,2.1 -5,2.1 h -5 z"
       id="path95" />
    <path
       d="m 330.8,514 c -2.5,-1.5 -17.1,-19.1 -16.4,-19.8 0.4,-0.3 3.3,2.2 6.5,5.6 6,6.2 9.8,8.1 13.1,6.6 1,-0.5 10.8,-9.4 21.7,-19.8 45.8,-43.8 58.9,-56.4 63.7,-61.1 2.8,-2.7 13.7,-13.1 24.1,-23 10.5,-9.9 21.6,-20.5 24.8,-23.5 3.2,-3 6.2,-5.6 6.5,-5.8 0.4,-0.1 1.3,1.2 2,3 l 1.3,3.3 -9.8,9.4 C 436.2,419.8 365,488.2 350.2,502.3 336.9,515 334.8,516.3 330.8,514 Z"
       id="path96" />
    <path
       d="m 572.8,497.3 c -3.6,-0.4 -3.8,-0.6 -3.8,-3.7 0,-1.9 0.6,-3.9 1.4,-4.5 0.7,-0.6 4.7,-1.4 9,-1.7 6.5,-0.6 7.6,-0.5 7.6,0.9 0,0.9 -0.8,1.8 -1.8,2.1 -3,1 -6.2,4.5 -5.6,6.1 0.6,1.6 0.7,1.6 -6.8,0.8 z"
       id="path97" />
    <path
       d="m 601,469.6 c 0,-2.9 1,-4.2 7,-9.6 7.6,-6.9 10.8,-12.6 9,-16 -0.9,-1.7 -0.7,-2 1,-2 1.1,0 2,-0.1 2,-0.3 0,-0.7 -10,-24.9 -14,-33.7 -2.3,-5.2 -8.2,-18.5 -13,-29.5 -4.8,-11 -10.3,-23.3 -12.1,-27.2 l -3.3,-7.3 h -5.3 c -4.1,0 -5.4,-0.4 -6.3,-1.9 -2.2,-4.2 -1.4,-4.9 6.5,-5.6 5.4,-0.5 7.5,-1.1 7.5,-2.1 0,-2.3 1.6,-1.6 3,1.4 0.7,1.5 3.7,8.6 6.7,15.7 3,7.2 7.3,16.8 9.5,21.5 2.2,4.7 5.7,12.3 7.8,17 2.1,4.7 6.8,15.3 10.5,23.5 10.3,22.9 13.5,30.8 13.5,33.6 0,1.5 -1.5,4.9 -3.4,7.7 -1.9,2.7 -3.3,5.3 -3,5.6 0.2,0.3 0.1,0.4 -0.3,0.1 -0.4,-0.3 -2.8,1.6 -5.4,4.1 -3.9,3.9 -4.6,5.1 -3.8,6.6 0.9,1.7 0.4,1.8 -6.6,1.8 H 601 Z"
       id="path98" />
    <path
       d="m 507,341.4 c -0.6,-1.4 -1,-3 -1,-3.5 0,-0.5 4,-0.9 8.8,-0.9 h 8.8 l 1.7,3.5 1.7,3.5 h -9.5 c -9.3,0 -9.6,-0.1 -10.5,-2.6 z"
       id="path99" />
    <path
       d="m 532.3,340.5 c -0.9,-1.9 -1.4,-3.7 -1.2,-3.9 0.8,-0.9 24.9,0.7 24.9,1.6 0,0.4 -0.7,0.8 -1.5,0.8 -0.8,0 -1.7,1.1 -2.1,2.5 -0.6,2.4 -0.9,2.5 -9.5,2.5 H 534 Z"
       id="path100" />
    <path
       d="m 573.2,319.1 c -2.4,-4 -3.6,-5 -6.2,-5.3 -3.1,-0.3 -3.4,-0.7 -9.4,-15.3 -3.5,-8.2 -9.7,-22.4 -13.8,-31.5 -10.8,-23.7 -20.4,-45.7 -22.5,-51.5 -1.7,-4.5 -2.2,-5 -5.8,-5.8 -2.2,-0.6 -4.2,-1.1 -4.4,-1.3 -0.2,-0.1 2.1,-3.2 5,-6.8 4.9,-5.9 9.6,-11.7 28.1,-35 3.5,-4.3 9.8,-12.4 14.1,-18 4.2,-5.5 10.3,-13 13.5,-16.6 3.2,-3.6 7.1,-8.3 8.7,-10.5 1.7,-2.2 4,-5.1 5.3,-6.5 1.2,-1.4 2.2,-2.8 2.2,-3.2 0,-0.5 3.8,-0.8 8.5,-0.8 4.7,0 8.5,0.2 8.5,0.5 0,0.2 -3.9,5.3 -8.7,11.3 -4.9,6 -12.4,15.5 -16.8,21.2 -11.9,15.3 -27.8,35.4 -28.5,36 -0.3,0.3 -1.9,2.3 -3.5,4.5 -1.7,2.2 -5.8,7.5 -9.2,11.9 -7.2,8.9 -7.7,10.3 -7.1,18.9 0.4,5.3 2.4,10.6 13.7,36.2 7.3,16.5 15.9,35.5 19.1,42.1 3.2,6.7 6.1,13.2 6.5,14.5 0.3,1.3 2,5.2 3.7,8.7 3.8,7.6 3.2,9 -1,2.3 z"
       id="path101" />
    <path
       d="m 501,305.3 c -2.3,-4.9 -4.8,-10.4 -5.5,-12.5 -1.7,-4.5 -9.3,-22.2 -14.1,-32.5 -8.7,-18.8 -20.4,-46.8 -20.4,-49 0,-0.8 -1.3,-1.3 -3.5,-1.3 -4.5,0 -4.5,-1.3 0.4,-8.2 3.6,-5.2 28.3,-36.5 44.4,-56.2 3.9,-4.9 10.3,-12.7 14,-17.5 3.8,-4.7 8.6,-10.5 10.8,-12.8 l 4,-4.3 h 8.5 c 4.6,0 8.4,0.2 8.4,0.5 0,0.3 -3.5,4.7 -7.8,9.8 -4.3,5.1 -8.9,10.6 -10.2,12.3 -1.4,1.7 -9,11.1 -17,20.9 -8,9.8 -16.9,21 -19.9,24.9 -3,3.9 -8.6,11.2 -12.6,16.1 -3.9,5 -8.2,10.5 -9.5,12.4 l -2.3,3.3 2.1,5.7 c 2.3,6.4 18.6,44 32.1,74 5,11.3 9.1,21 9.1,21.8 0,0.8 -1.2,1.3 -3.4,1.3 -3.2,0 -3.5,-0.3 -7.6,-8.7 z"
       id="path102" />
    <path
       d="m 537.4,311.3 c -0.4,-1.6 -3.9,-9.8 -7.9,-18.3 -4,-8.5 -8.5,-18.6 -9.9,-22.5 -1.5,-3.8 -5,-12.2 -7.8,-18.5 -2.8,-6.3 -5.7,-12.8 -6.4,-14.5 -0.7,-1.6 -3.1,-7 -5.3,-11.8 -2.2,-4.9 -4.3,-10.4 -4.7,-12.3 l -0.6,-3.4 h -8.9 c -6.5,0 -8.9,-0.3 -8.9,-1.2 0,-0.7 4.5,-6.9 10.1,-13.8 5.5,-6.9 14.6,-18.3 20.2,-25.5 5.6,-7.1 13.8,-17.3 18.2,-22.6 4.4,-5.3 12.6,-15.6 18.3,-22.8 L 554.1,111 h 14.1 c 7.7,0 13.8,0.3 13.6,0.8 -0.5,1.1 -13.1,17 -22.3,28.1 -12.1,14.4 -43.2,53.2 -49.7,62 -3.7,4.9 -5.7,8.6 -5.8,10.4 0,2.9 1.9,7.7 13.8,35.2 3.5,8.3 9.8,22.8 13.8,32.3 4.1,9.6 9,20.8 10.9,24.9 1.9,4.2 3.5,8 3.5,8.4 0,0.5 -1.8,0.9 -4,0.9 -3.5,0 -4,-0.3 -4.6,-2.7 z"
       id="path103" />
  </g>
  <g
     fill="#18ba4d"
     id="g104"
     style="display:inline"
     inkscape:label="Vert">
    <path
       d="m 226,464.2 c -8.6,-20.4 -16.5,-49.2 -18.8,-68.9 -1,-8.8 -1.2,-8.7 12,-4.3 19.9,6.7 41.9,11.3 67.4,14.1 l 11.2,1.2 -14.7,14.1 c -8,7.7 -20,19.2 -26.6,25.5 -6.6,6.4 -15.4,14.8 -19.6,18.8 l -7.6,7.3 z"
       id="path104" />
  </g>
  <g
     fill="#3e3b2f"
     id="g136"
     style="display:inline"
     inkscape:label="Marron foncé">
    <path
       d="m 305.3,898.8 c -1.3,-0.6 -2.3,-1.5 -2.3,-2 0,-0.4 -0.7,-0.8 -1.5,-0.8 -0.8,0 -1.5,-0.7 -1.5,-1.5 0,-2 -1,-1.9 -2.5,0.2 -2.8,3.8 -19,1.4 -21.5,-3.2 -1,-1.8 -2.4,-2.6 -5.9,-3 -8.3,-1.1 -9.8,-1.6 -14,-4.3 -3.3,-2.1 -4.5,-3.7 -5.4,-6.9 -0.7,-2.6 -1.4,-3.8 -1.8,-3.1 -0.6,0.9 -1.3,0.8 -2.7,-0.5 -1.1,-1 -2.6,-1.5 -3.6,-1.1 -2.5,0.9 -11.6,-8.9 -11.6,-12.5 -0.1,-4 -2.4,-7.3 -6.1,-8.5 -4.8,-1.6 -9.1,-8.9 -9.3,-15.8 -0.1,-5.8 -1,-8 -4.1,-9.6 -3.4,-1.7 -7,-15.2 -4.5,-16.7 0.6,-0.3 1,-1.5 1,-2.6 0,-1 0.6,-1.9 1.3,-1.9 0.7,0 0.8,-0.3 0.2,-0.8 -0.5,-0.4 -2,-2.1 -3.2,-3.9 -4.2,-5.9 -2.8,-18.4 2.4,-21.6 0.8,-0.5 1,-1.4 0.4,-2.5 -3.2,-6.4 -3.3,-6.9 -2,-12.8 1,-4.5 2.1,-6.7 4.8,-9.2 3.1,-2.9 3.5,-3.8 3.6,-8.5 0,-6.1 4.3,-14 8.5,-15.6 4.8,-1.9 7.6,-5.5 7.1,-9.4 -0.1,-1 0.2,-2.4 0.8,-3 0.6,-0.8 0.6,-1.8 0.1,-2.7 -1.5,-2.3 -1.2,-2.8 3,-5.6 3.4,-2.2 4.8,-2.6 9,-2.2 l 5,0.5 v -4.8 c 0,-4.2 0.4,-5.1 3.3,-7.2 8,-6.1 15.9,-7.5 19.7,-3.7 2,2 2,2 2,-2.4 v -4.3 l 6.5,-2.2 c 3.6,-1.1 8.8,-2.1 11.6,-2.1 4.8,0 5.1,0.1 6.7,3.8 1.5,3.4 1.6,3.5 1.9,1.2 1,-7.4 0.3,-7 11.4,-7 11.6,0 13.9,0.8 13.9,5 0,3.6 1.1,3.9 2.5,0.8 0.9,-2.1 1.7,-2.3 9,-2.3 4.4,0 9.9,0.6 12.3,1.4 4.1,1.4 4.2,1.5 4.2,5.9 0,4.3 0.1,4.4 1.8,2.9 2.4,-2.2 10.3,-2.2 14.5,-0.1 6.1,3.1 7.7,5.3 7.8,10.8 0,2.8 0.3,4.5 0.6,3.9 0.3,-0.8 2.3,-1.3 5.1,-1.3 4.3,0 5.3,0.5 10.6,5.3 5.8,5.1 5.8,5.3 5.5,10 l -0.4,4.7 h 3.7 c 3,0 4.1,0.6 6.1,3.3 6.1,8.2 7.7,17.1 3.5,20 -2.3,1.6 -2.2,1.6 1.8,1.6 2.3,0.1 4.7,0.7 5.3,1.5 1.7,2 4.1,12.1 4.1,17.1 0,4 -0.3,4.6 -3.2,6.2 l -3.3,1.7 4.3,0.9 4.2,1 v 11.2 c 0,12.2 -0.1,12.5 -5.8,12.5 h -2.7 l 3.3,2 c 3,1.8 3.2,2.4 3.2,7.2 0,5.5 -2.2,14.1 -4.1,16.4 -0.6,0.8 -3,1.4 -5.3,1.5 -4,0 -4.1,0 -1.8,1.6 3.7,2.6 2.9,11.2 -1.5,16.1 -0.7,0.7 -1.3,1.8 -1.3,2.4 0,2 -3.5,3.7 -7.5,3.8 h -4 l 0.3,5.8 0.4,5.8 -5.7,5.2 c -4.6,4.3 -6.2,5.2 -9.2,5.2 -2,0 -4.5,-0.7 -5.4,-1.6 -1.7,-1.6 -1.8,-1.4 -1.3,3.2 0.5,4.4 0.3,5.2 -2,7.4 -1.8,1.6 -3.9,2.5 -6.4,2.5 -13.9,0.4 -13.8,0.4 -17.6,3.9 -2.6,2.5 -5.2,3.8 -9.2,4.6 -5.8,1.2 -12.4,0.6 -13.5,-1.2 -0.4,-0.7 -2,0.1 -4,2.1 -3.2,2.9 -3.9,3.1 -10.4,3 -3.8,0 -8,-0.5 -9.2,-1.1 z M 329,848.9 c 17.3,-4.1 34.7,-20.2 41,-38 2.8,-8 3.9,-25.5 2,-33.6 -6.9,-31.1 -37.5,-51.5 -68.7,-46 -4.5,0.8 -9.4,2.2 -11,3 -1.5,0.9 -4.4,2.3 -6.3,3.3 -7.4,3.8 -14.9,9.5 -19,14.6 -8.1,10 -14,26 -14,37.8 0,11.5 6,28.1 14.1,38.7 6.5,8.7 21.3,18 31.9,20.2 3,0.6 6.4,1.3 7.5,1.5 2.9,0.7 17.2,-0.3 22.5,-1.5 z"
       id="path105" />
    <path
       d="m 305.3,834.8 c -1.3,-0.6 -2.3,-1.9 -2.3,-2.8 0,-3.5 2.3,-4.1 11.6,-3.3 7.4,0.7 8.9,1.1 9.2,2.6 0.7,3.5 -1.6,4.7 -9.2,4.6 -3.9,0 -8.1,-0.5 -9.3,-1.1 z"
       id="path106" />
    <path
       d="m 281.9,822.8 c -6.1,-6.4 -7,-9.1 -3.7,-11.2 1.4,-0.8 2.8,0.1 8,4.9 6.5,6.2 7.8,8.6 5.8,11.1 -2.1,2.5 -4,1.6 -10.1,-4.8 z"
       id="path107" />
    <path
       d="m 335.2,827.8 c -2.2,-2.2 -1.2,-4.3 4.7,-10.2 4.4,-4.3 6.4,-5.7 8.2,-5.4 1.3,0.1 2.5,1 2.7,1.9 0.4,2.1 -5.5,9.8 -9.7,12.6 -3.9,2.7 -4.3,2.7 -5.9,1.1 z"
       id="path108" />
    <path
       d="m 269,798.4 c -1.3,-3.3 -1.3,-9.9 0.1,-14.7 0.9,-3.3 1.4,-3.8 3.7,-3.5 2.7,0.3 2.7,0.4 2.4,6.8 -0.1,3.6 0.3,7.5 0.9,8.7 0.9,1.7 0.9,2.6 -0.1,3.8 -2,2.5 -5.9,1.9 -7,-1.1 z"
       id="path109" />
    <path
       d="m 352.3,800.2 c -1.3,-0.8 -2.1,-17.1 -0.9,-19 1,-1.7 5.3,-1.5 6,0.4 1.1,2.9 0.7,16.9 -0.6,18.2 -1.4,1.4 -2.8,1.5 -4.5,0.4 z"
       id="path110" />
    <path
       d="m 277.2,768.8 c -2.1,-2.1 -1.3,-3.8 4.5,-9.9 6.3,-6.6 9.8,-7.7 10.9,-3.4 0.5,2.2 -0.3,3.4 -5.7,8.5 -6.7,6.3 -7.7,6.8 -9.7,4.8 z"
       id="path111" />
    <path
       d="m 339.8,763.9 c -5.9,-6 -6.7,-7.6 -4.6,-9.7 2,-2 4.2,-1.4 8.4,2.2 4.6,3.9 8,9.6 7.1,12 -1.2,3.1 -5.1,1.5 -10.9,-4.5 z"
       id="path112" />
    <path
       d="m 303.9,750.9 c -1.9,-3.7 1.8,-5.9 10,-5.9 7.7,0 10.5,1.4 9.9,5.1 -0.3,2.3 -0.6,2.4 -9.5,2.7 -8.6,0.3 -9.3,0.1 -10.4,-1.9 z"
       id="path113" />
    <path
       d="m 661,899.3 c -0.8,-0.2 -3,-1.1 -4.8,-2 -2.3,-1 -4.8,-1.2 -8.6,-0.8 -7.5,1 -15.4,-1.4 -18.4,-5.5 -2,-2.6 -2.9,-3 -7,-3 -5.4,0 -16.5,-5.5 -17,-8.5 -0.6,-2.6 -5.3,-6.4 -8.2,-6.5 -3.5,0 -13,-9.4 -13,-12.9 -0.1,-3 -3.6,-7.6 -6.5,-8.5 -3,-0.9 -7.8,-9.2 -8.1,-14 -0.3,-5.4 -1.9,-9.2 -4.3,-10.5 -2.3,-1.3 -6.5,-13.2 -5.6,-16.1 0.4,-1.2 0.2,-2 -0.5,-2 -2,0 0.9,-3.8 3.2,-4.3 1.5,-0.3 1.1,-0.5 -1.2,-0.6 -6.3,-0.2 -7.4,-2.7 -6.6,-14.5 0.8,-10.6 1.2,-11.6 5.9,-11.6 1.5,0 2.7,-0.4 2.7,-0.9 0,-0.5 -1.2,-1.1 -2.7,-1.3 -2.5,-0.3 -2.8,-0.7 -3.1,-4.8 -0.9,-12.4 2.5,-20 8.8,-20 3,0 3,-0.1 1.5,-1.7 -2.7,-2.6 -1.5,-12 2.2,-17.5 2.7,-4 3.2,-4.3 8.3,-4.8 3.3,-0.3 5,-0.8 4.3,-1.3 -0.7,-0.5 -1.3,-2.8 -1.3,-5.4 0,-4.1 0.4,-4.9 4.8,-8.9 4.2,-3.9 5.2,-4.4 9.5,-4.4 4,0 4.7,-0.3 4.7,-2 0,-1.3 0.7,-2 1.9,-2 1.1,0 3.5,-1.4 5.3,-3.1 4.8,-4.5 7.8,-5.7 14.1,-6.1 l 5.7,-0.3 v -4.1 c 0,-3.5 0.4,-4.3 2.8,-5.4 1.5,-0.6 6.4,-1.5 10.9,-1.7 8.7,-0.6 10.6,0.1 11.5,4.3 0.5,2 0.6,1.9 2.4,-4.1 l 0.9,-3 10.9,-0.3 c 11.8,-0.3 12.6,0 12.6,4.9 0,3.9 1.1,4.2 3,0.6 1.5,-2.8 2.3,-3.2 6.6,-3.5 4.7,-0.3 14.6,2 17.2,4.1 0.6,0.5 1.2,2.8 1.2,5.1 0.1,3.3 0.3,3.7 1.1,2.4 1.5,-2.7 12.7,-2.5 16.2,0.2 1.4,1.1 3.2,2 4.1,2 2.3,0 3.9,3.8 3.3,8 l -0.5,3.7 4.8,-0.5 c 5.6,-0.5 9.4,1.2 13.9,6.3 2.7,3.1 3.1,4.3 3.1,9 v 5.5 h 4 c 3.7,0 4.1,0.3 7.5,6.1 2.7,4.6 3.5,7.1 3.5,10.8 0,2.6 -0.5,5.2 -1.2,5.9 -0.9,0.9 -0.4,1.2 2.3,1.2 2.8,0 3.8,0.5 4.7,2.4 1.6,3.7 3.4,13.7 3,17.5 -0.3,3.3 -1,4.1 -5.3,5.7 -1.6,0.7 -1.4,0.9 1.5,1.2 5.6,0.6 6,1.4 6,12.6 0,11.4 -0.6,12.6 -5.9,12.6 h -3.6 l 3.5,1.8 c 3.1,1.5 3.5,2.2 3.8,6.2 0.4,4.8 -1.3,12.2 -3.5,15.8 -1,1.7 -2.3,2.2 -5.6,2.2 l -4.2,0.1 2.8,2 c 4,3.1 3.7,8.2 -1,16.4 l -3.7,6.5 h -4.6 -4.7 l 0.5,5.3 c 0.4,4.8 0.1,5.6 -2.9,9.4 -3.1,3.9 -3.8,4.2 -8.2,4.2 -6.2,0.1 -10.3,2.3 -12.1,6.4 -1,2.6 -2.6,3.9 -6.7,5.7 -7.3,3.2 -13,4 -14.7,2 -0.8,-0.8 -1,-0.9 -0.7,-0.2 1,1.9 -4.4,6.9 -9.4,8.7 -2.5,0.8 -7.2,1.3 -11.9,1.2 -5.9,-0.1 -8.3,0.3 -10.2,1.6 -2.4,1.6 -11.4,2.3 -15,1 z M 675.5,850 c 3.3,-0.5 9.7,-2.2 14.3,-3.6 7.3,-2.4 9.1,-3.4 15.6,-9.5 4,-3.8 9.2,-9.8 11.5,-13.3 22.3,-34.1 5,-79.8 -34.4,-91.1 -7.8,-2.3 -25.6,-1.5 -34.8,1.6 -18.9,6.3 -34,22.2 -38.9,40.9 -5.1,19.5 0.3,41.5 13.7,55.9 14.5,15.5 33.3,22.3 53,19.1 z"
       id="path114" />
    <path
       d="m 657.9,834.1 c -2,-1.6 -2.2,-2.3 -1.3,-3.8 0.9,-1.5 2.6,-1.8 10.3,-1.9 8.9,-0.2 9.1,-0.1 9.7,2.2 1.1,4.2 -1.1,5.4 -9.1,5.4 -5.7,0 -7.8,-0.4 -9.6,-1.9 z"
       id="path115" />
    <path
       d="m 635.3,822.5 c -4.3,-4.4 -5.4,-6.2 -5.1,-8.3 0.5,-4.5 3.1,-3.6 10.3,3.4 5.5,5.4 6.6,7 5.8,8.3 -2.2,3.5 -5.3,2.5 -11,-3.4 z"
       id="path116" />
    <path
       d="m 688.7,827.3 c -1.6,-1.5 -0.4,-3.8 5.1,-9.9 5.8,-6.5 8,-7.6 10.2,-4.9 1.8,2.2 -0.1,5.5 -6.3,11.1 -4.6,4.1 -7.5,5.3 -9,3.7 z"
       id="path117" />
    <path
       d="m 623.1,799.6 c -0.8,-0.9 -1.1,-4.4 -0.9,-9.6 0.3,-8.7 1.6,-11.1 5.2,-9.7 1.3,0.5 1.6,2.3 1.6,10.7 0,9.9 0,10 -2.4,10 -1.3,0 -2.9,-0.6 -3.5,-1.4 z"
       id="path118" />
    <path
       d="m 705.1,800.1 c -1.1,-0.7 -1.1,-1.5 0,-4.5 1.1,-2.9 1.1,-4.5 0.1,-8.2 -1.4,-5.3 -0.3,-7.7 3.2,-7.2 1.8,0.3 2.2,1.2 2.9,8 1,10.8 -1.1,15.1 -6.2,11.9 z"
       id="path119" />
    <path
       d="m 630.1,769.1 c -2.1,-1.4 -0.5,-4.6 5.4,-10.6 5.9,-6 9.8,-7.2 11,-3.4 0.6,1.7 -0.6,3.4 -5.6,8.5 -6.2,6.3 -8.1,7.2 -10.8,5.5 z"
       id="path120" />
    <path
       d="m 693.8,763.9 c -6,-6.1 -6.7,-7.6 -4.6,-9.7 1.9,-1.9 3.5,-1.4 7.8,2.4 5.7,5.1 8.5,10 7,11.9 -2.1,2.5 -4.3,1.5 -10.2,-4.6 z"
       id="path121" />
    <path
       d="m 658.2,752.1 c -0.8,-0.4 -1.2,-1.9 -1,-3.2 0.3,-2.3 0.7,-2.4 9.3,-2.7 7.5,-0.2 9.2,0 10.2,1.4 0.9,1.2 0.9,2.2 0.2,3.5 -0.8,1.6 -2.2,1.9 -9.2,1.9 -4.5,0 -8.8,-0.4 -9.5,-0.9 z"
       id="path122" />
    <path
       d="m 842.9,820.1 c -2.9,-2.9 -2.9,-3 -2.9,-15.5 0,-10.1 0.3,-12.6 1.4,-12.6 2.2,0 2.8,-2.9 2,-9.7 l -0.6,-6.3 h 53.6 53.6 v 9.6 c 0,8.7 -0.2,9.6 -2,10.1 -1.1,0.3 -2,1.2 -2,1.9 0,0.8 -0.9,1.4 -2,1.4 -1.1,0 -2,-0.7 -2,-1.5 0,-1.2 -1.4,-1.5 -6.4,-1.5 -5.5,0 -6.4,0.3 -6.9,2 -0.7,2.6 -3.3,2.6 -4,0 -0.5,-1.9 -1.2,-2.1 -11.9,-1.8 -8.4,0.2 -11.2,0.6 -11,1.6 0.1,0.9 -2.9,1.2 -12.5,1.2 -7.1,0 -18.5,0.3 -25.5,0.7 l -12.8,0.6 v 4.8 c 0,2.9 0.6,5.3 1.5,6.3 1.8,1.7 4.5,1.1 4.5,-1 0,-1 1.4,-1.4 5,-1.4 h 5 v 4.5 c 0,3.5 -0.6,5.2 -2.5,7 -2.2,2.2 -3.2,2.5 -10.5,2.5 -7.7,0 -8.3,-0.2 -11.1,-2.9 z"
       id="path123" />
    <path
       d="m 930.3,818.6 c -4,-1.8 -5.3,-4.3 -5.3,-10 0,-3.9 0.3,-4.6 2,-4.6 1.7,0 2,0.7 2,4.4 0,2.7 0.6,4.8 1.5,5.6 1.8,1.5 6.2,1.7 8.7,0.6 2,-0.9 3.7,1.9 2.2,3.4 -1.8,1.7 -7.9,2 -11.1,0.6 z"
       id="path124" />
    <path
       d="m 491.5,807 c -1.4,-2.7 -3.4,-7.3 -4.6,-10.2 -1.1,-2.9 -3.1,-7.6 -4.5,-10.6 -2.3,-5.1 -2.4,-5.9 -2.4,-30.6 v -25.3 l 2.8,-3.6 c 2.9,-3.8 7,-5.4 7.9,-3.1 0.4,1 2.5,1.4 7.4,1.4 6.2,0 6.9,-0.2 6.9,-2 0,-1.8 0.5,-1.9 6.4,-1.3 l 6.5,0.6 0.3,-3.9 c 0.3,-3.8 0.4,-3.9 4.6,-4.2 3.9,-0.3 4.2,-0.5 4.2,-3.1 v -2.8 l 11.8,-0.6 c 6.4,-0.3 14.5,-0.3 18,0 l 6.2,0.6 v 9.2 c 0,10.4 0,10.5 -8.7,10.5 H 550 l -0.2,26.3 c -0.2,14.4 -0.3,32.5 -0.3,40.2 v 14 l -25.5,0.3 c -21.2,0.2 -25.6,0.5 -26.3,1.7 -1.5,2.7 -3.6,1.5 -6.2,-3.5 z"
       id="path125" />
    <path
       d="m 866,737 v -31 h 29 29 v 31 31 h -29 -29 z"
       id="path126" />
    <path
       d="m 819.7,712.7 -9.8,-1 0.3,-8.6 0.3,-8.6 10.8,-0.3 10.7,-0.3 V 704 c 0,7.4 -0.3,10 -1.2,9.9 -0.7,-0.1 -5.7,-0.6 -11.1,-1.2 z m -1.8,-5.1 c 0.7,-0.8 1.1,-3.2 0.9,-5.3 -0.3,-3.3 -0.6,-3.8 -2.8,-3.8 -3.2,0 -4.9,4.2 -3.2,8 1.3,2.8 3.3,3.2 5.1,1.1 z m 11.3,-1.1 c 2.2,-4.8 -2.7,-11.5 -5.3,-7.3 -1,1.5 -1.2,6 -0.3,8.2 0.9,2.5 4.3,1.9 5.6,-0.9 z"
       id="path127" />
    <path
       d="m 932.4,706.6 c 0.5,-3.6 0.3,-6.1 -0.5,-7.4 -2.4,-3.8 -0.5,-5.3 6.3,-5 l 6.3,0.3 0.3,8.1 c 0.3,9.2 0.2,9.4 -8.7,9.4 h -4.3 z m 10.4,-1.5 c 0.7,-4.3 -0.6,-7.1 -3.3,-7.1 -2.3,0 -2.5,0.4 -2.5,4.3 0,5 0.6,5.9 3.5,5.5 1.2,-0.2 2.1,-1.2 2.3,-2.7 z"
       id="path128" />
    <path
       d="M 866,666.5 V 636 h 29 29 v 30.5 30.5 h -29 -29 z"
       id="path129" />
    <path
       d="m 460.6,642.1 c -1.2,-2.2 -8,-22.4 -17.2,-50.9 -0.2,-0.7 -0.9,-1.2 -1.6,-1.1 -3.7,0.5 -4.6,-0.2 -4.6,-3.4 0,-1.8 -0.9,-6.1 -2.1,-9.6 -1.2,-3.6 -2.1,-8.8 -2.1,-11.8 0,-4.9 0.2,-5.4 3.4,-7.5 4.9,-3.3 5.9,-5.4 5.7,-12.6 l -0.2,-6.3 5.3,0.3 5.3,0.3 5.8,18 c 3.3,9.9 6.3,18.8 6.8,19.7 1.3,2.6 1.1,5.6 -0.6,6.5 -1.2,0.7 0,5.1 7,26.5 4.7,14.1 8.5,26.4 8.5,27.3 0,1.4 -1.1,1.9 -3.7,1.6 -0.7,-0.1 -3.9,1.2 -7.2,2.9 -3.3,1.6 -6.3,3 -6.5,3 -0.3,0 -1.2,-1.3 -2,-2.9 z"
       id="path131" />
    <path
       d="m 600.2,602 0.3,-37 2.8,-2.7 2.7,-2.8 19.6,-0.3 c 17.4,-0.3 19.7,-0.5 20.1,-2 0.3,-1.4 1.9,-1.7 10.2,-1.7 8.9,0 9.8,0.1 9.3,1.7 -0.4,1.7 1.9,1.8 41.3,1.8 35.2,0 41.6,-0.2 41.2,-1.4 -0.4,-0.9 0.4,-1.6 2.5,-2 5.8,-1.1 8.5,-0.7 9.1,1.4 0.5,1.9 1.4,2 14.7,2 17.1,0 19.4,0.8 21.2,7.5 1.2,4.3 1.4,4.5 5,4.5 4.3,0 4.3,0 2.4,-6.3 -1.3,-4.4 -1.3,-4.7 0.4,-4.7 1,0 2.3,1.3 3,3 l 1.2,3 h 14.4 c 13.3,0 14.3,-0.1 14.9,-2 0.3,-1.1 1.8,-2.9 3.2,-4 2.4,-1.9 4,-2 32.4,-2 h 29.7 l 3.1,2.6 c 1.7,1.4 3.1,3.2 3.1,4 0,1.2 3.2,1.4 18.5,1.4 20.5,0 23.3,0.6 25.4,5.7 0.8,2 1.1,12.3 0.9,34.8 l -0.3,32 -10.3,0.3 c -8.8,0.2 -10.3,0 -10.9,-1.4 -0.4,-1 0,-2 1,-2.6 2.4,-1.3 2.4,-13.3 0.1,-14.2 -1.6,-0.6 -1.6,-0.8 0,-2.4 1.2,-1.4 1.6,-3.9 1.6,-10.3 0,-7.3 -0.3,-8.9 -2.1,-10.8 -1.7,-1.8 -3,-2.1 -6.7,-1.9 l -4.7,0.3 -0.3,10.8 c -0.2,8.6 -0.6,10.7 -1.7,10.7 -1.2,0 -1.5,-2 -1.5,-11 0,-6.7 -0.4,-11 -1,-11 -0.6,0 -1,4.4 -1,11.1 0,10 -0.2,11 -1.7,10.7 -1.6,-0.3 -1.8,-1.8 -2.1,-11.1 -0.2,-8 -0.6,-10.7 -1.5,-10.4 -0.8,0.2 -1.3,3.4 -1.4,9.8 -0.1,5.2 -0.2,10 -0.2,10.7 -0.1,1 -7.7,1.2 -36.3,1 l -36.1,-0.3 0.2,-8.4 c 0.2,-6.5 -0.1,-8.2 -1.1,-7.9 -0.9,0.3 -1.4,3 -1.6,8.6 -0.2,6.4 -0.6,8.2 -1.7,8.2 -1.2,0 -1.5,-1.8 -1.5,-9.5 0,-9.1 0.1,-9.6 3,-12.8 2.9,-3.4 3,-3.7 3,-14.1 V 570 h -11.5 -11.4 l -0.3,7.8 -0.3,7.7 -1.5,-4.5 c -0.8,-2.5 -2.1,-4.5 -2.7,-4.4 -0.7,0.1 -3.8,0.2 -6.8,0.3 l -5.5,0.1 -0.2,30.8 -0.3,30.7 -97.8,0.3 -97.8,0.2 z m 36.6,32.5 3.2,-0.6 v -6.4 -6.5 h -13.4 c -7.3,0 -15.4,-0.3 -18,-0.6 l -4.6,-0.7 v 7.1 c 0,4.2 0.4,7.2 1.1,7.4 2.1,0.6 28.4,0.9 31.7,0.3 z m 22.5,-0.5 h 6.8 l -0.3,-6.6 -0.3,-6.7 -9.9,0.2 c -5.5,0.1 -10.4,0.4 -10.8,0.7 -1,0.6 -1.1,11.8 0,12.8 0.4,0.4 2.3,0.5 4.2,0.2 1.9,-0.3 6.6,-0.6 10.3,-0.6 z m 114.5,-0.2 c 0.7,-0.7 1.2,-3.8 1.2,-7 v -5.9 l -10.7,0.3 -10.8,0.3 -0.3,5.8 c -0.3,5.2 -0.1,5.8 2,6.7 3.4,1.3 17.2,1.2 18.6,-0.2 z M 949,604.3 c 0,-27.1 -0.2,-30.9 -1.7,-32.5 -1.4,-1.6 -3.3,-1.8 -14.5,-1.8 h -12.9 l 0.3,10.3 0.3,10.2 5.8,0.6 c 10.4,1.1 11.7,4.2 11.7,27 0,8.6 0.3,15.9 0.7,16.2 0.3,0.4 2.8,0.7 5.5,0.7 H 949 Z M 687,627.5 V 621 h -7.8 c -4.7,0 -8.3,0.5 -9,1.2 -0.7,0.7 -1.2,3.6 -1.2,6.5 v 5.3 h 9 9 z m 62.8,-5.7 0.3,-11.8 h -29.4 -29.4 l -0.6,7.1 c -0.3,3.8 -0.3,9.2 0,12 l 0.6,4.9 29.1,-0.2 29.1,-0.3 z M 792,605.4 v -28.7 l -73.5,0.5 c -41.8,0.3 -73.9,0.9 -74.4,1.4 -0.4,0.5 -0.6,9.1 -0.3,19.2 l 0.4,18.2 h 10.3 10.2 l 0.7,-3.7 c 0.3,-2.1 0.6,-7.5 0.6,-12.1 0,-7.5 0.2,-8.5 2.5,-10.7 l 2.4,-2.5 44.8,-0.2 c 54,-0.3 54.9,-0.3 57.9,1.7 4.2,2.7 4.9,5.2 4.7,18.5 -0.1,6.9 0,15.8 0.3,19.8 l 0.6,7.2 h 6.4 6.4 z M 628.2,616 H 640 l -0.2,-26.2 -0.3,-26.3 -16,-0.3 c -15.3,-0.3 -16.1,-0.2 -17.7,1.9 -1.6,1.9 -1.8,4.8 -1.8,27.2 v 25 l 6.1,-0.7 c 3.4,-0.3 11.5,-0.6 18.1,-0.6 z m 58.6,-12.2 0.3,-12.8 h -6.8 c -7.4,0 -8.4,0.4 -10.2,3.7 -1.2,2.3 -1.6,20.5 -0.4,21.7 0.4,0.4 4.3,0.5 8.8,0.4 l 8,-0.3 z m 87.2,1.6 c 0,-8.3 -0.4,-11.4 -1.4,-12.3 -0.9,-0.8 -4.6,-1.1 -10.3,-0.9 l -8.8,0.3 -0.1,11.5 c -0.1,6.3 0,11.7 0.2,12 0.1,0.3 4.8,0.5 10.3,0.5 H 774 Z m 78.5,-1.4 v -8.5 h -6.5 -6.5 l -0.3,8.8 -0.3,8.8 6.8,-0.3 6.8,-0.3 z m 5.5,0 c 0,-5.3 -0.4,-9 -1,-9 -0.6,0 -1,3.7 -1,9 0,5.3 0.4,9 1,9 0.6,0 1,-3.7 1,-9 z m 23.5,0 v -8.5 l -9.7,-0.3 -9.8,-0.3 v 6.1 c 0,4.7 -0.3,6 -1.5,6 -0.8,0 -1.5,0.7 -1.5,1.5 0,0.8 0.7,1.5 1.5,1.5 0.8,0 1.5,0.7 1.5,1.5 0,1.3 1.5,1.5 9.8,1.3 l 9.7,-0.3 z m 23,0 v -8.5 l -9.7,-0.3 -9.8,-0.3 v 8.4 c 0,4.6 0.3,8.7 0.7,9.1 0.4,0.4 4.8,0.5 9.8,0.4 l 9,-0.3 z m -156,0.8 c 0.3,-0.3 0.7,-3.5 0.8,-7.1 l 0.2,-6.5 -20,-0.7 c -11,-0.3 -24.3,-0.5 -29.5,-0.3 l -9.5,0.3 -0.3,7.2 -0.3,7.2 5.3,0.4 c 7.6,0.6 52.6,0.2 53.3,-0.5 z M 858,580.5 V 570 h -9.5 -9.5 v 9.8 c 0,5.4 0.3,10.2 0.7,10.5 0.3,0.4 4.6,0.7 9.5,0.7 h 8.8 z m 23.4,9.6 c 0.3,-0.5 0.3,-5.2 -0.1,-10.5 l -0.6,-9.6 h -9.4 -9.3 v 10.5 10.5 h 9.4 c 5.2,0 9.7,-0.4 10,-0.9 z M 905,580.5 V 570 h -10 -10 v 10.5 10.5 h 10 10 z m 11.8,0.3 -0.3,-10.3 -4.4,-0.3 -4.4,-0.3 0.6,5.3 c 0.4,2.9 0.7,7.7 0.7,10.6 v 5.2 h 4 4.1 z M 781,572 c 0,-0.5 2.5,-1 5.5,-1 4.8,0 5.5,-0.2 5.5,-2 0,-1.1 -0.9,-2.9 -2,-4 -1.8,-1.8 -3.3,-2 -15.6,-2 -11.3,0 -13.5,0.2 -13.1,1.4 0.4,1.1 -0.7,1.5 -5.1,1.8 -4.6,0.4 -6,0.1 -7.1,-1.4 -1.3,-1.7 -3.9,-1.8 -42.7,-1.8 H 665 l -1,2.5 c -0.9,2.4 -4,3.6 -4,1.5 0,-0.6 -2.8,-1 -6.5,-1 H 647 v 3.5 3.5 h 67 c 44,0 67,-0.3 67,-1 z m 76.5,-8.5 c 0,-1.8 -0.6,-2 -7.2,-1.9 -6.8,0.1 -10.3,1.3 -10.3,3.6 0,0.5 3.9,0.7 8.8,0.6 7.9,-0.3 8.7,-0.5 8.7,-2.3 z M 881,564 c 0,-1.9 -0.7,-2 -9.5,-2 -8.8,0 -9.5,0.1 -9.5,2 0,1.9 0.7,2 9.5,2 8.8,0 9.5,-0.1 9.5,-2 z m 23,1.2 c 0,-2.3 -3,-3.2 -10.7,-3.2 -7.6,0 -8.3,0.2 -8.3,2 0,1.9 0.7,2 9.5,2 5.2,0 9.5,-0.4 9.5,-0.8 z"
       id="path132" />
    <path
       d="m 468,518.1 c 0,-1.3 0.7,-2.1 1.6,-2.1 0.9,0 3.7,-1.7 6.3,-3.8 2.5,-2.1 5.9,-4.6 7.4,-5.6 2.5,-1.5 2.8,-2.3 2.5,-5.4 -0.3,-2.1 -0.8,-4.5 -1.2,-5.4 -0.7,-1.6 -0.2,-1.8 4.7,-1.8 4.7,0 5.7,-0.3 6.2,-2 0.8,-2.6 2.3,-2.5 5.2,0.2 2.1,2 2.6,2 7.5,0.9 4.1,-0.9 6.6,-2.3 10.7,-6.1 5.4,-4.9 5.4,-5 4.8,-9.8 -0.5,-4.5 -0.3,-5.1 2.1,-6.9 1.5,-1.1 4.2,-2.8 6,-3.7 2.9,-1.5 3.3,-1.5 3.8,-0.1 0.5,1.2 2.5,1.5 10.3,1.5 6.2,0 10.1,0.4 10.9,1.2 0.7,0.7 1.2,4 1.2,7.8 0,6.2 -0.2,6.8 -3.2,9.6 -7.3,6.8 -8.7,7.4 -21.7,8.1 l -12,0.6 0.5,7.1 0.5,7.1 -5.1,3.5 c -2.8,1.9 -5.9,4.2 -6.7,5 -1.3,1.2 -5.6,1.6 -22,1.8 -19.9,0.3 -20.3,0.3 -20.3,-1.7 z"
       id="path133"
       style="display:inline" />
    <path
       d="m 532.8,517.8 c -2.5,-0.8 -2.8,-1.5 -2.8,-5.1 0.1,-3.6 0.6,-4.6 3.5,-6.7 1.8,-1.4 6.1,-4.9 9.5,-7.7 5,-4.4 6.8,-5.3 9.9,-5.3 2.1,0 5.8,-0.3 8.2,-0.6 l 4.4,-0.6 -0.3,-4 c -0.4,-3.5 0,-4.3 3.9,-7.9 2.4,-2.2 6,-5.2 7.9,-6.7 1.9,-1.5 4.4,-3.5 5.4,-4.4 1.6,-1.5 3.9,-1.8 12.9,-1.8 9.6,0 10.8,0.2 9.7,1.5 -1.1,1.3 -0.5,1.5 4.3,1.5 5.8,0 6.7,0.7 6.7,5.5 0,4.2 -1.2,5.6 -7.9,10 l -6.7,4.2 -13.3,0.5 c -10.4,0.4 -13.6,0.9 -14.9,2.2 -1.5,1.5 -1.3,1.6 2,1.6 3.3,0 3.8,0.3 4.8,3.6 1.7,5 0.7,7.4 -4.7,11.5 -7.6,5.6 -8.4,5.9 -22.1,6.3 -9.1,0.3 -13.7,0.9 -15.3,1.9 -1.8,1.1 -3.1,1.2 -5.1,0.5 z"
       id="path134"
       style="display:inline" />
  </g>
  <g
     fill="#1b1f1e"
     id="g168"
     style="display:inline"
     inkscape:label="Noir">
    <path
       d="m 671.2,899.1 c -1,-0.6 -0.6,-1 1.5,-1.4 3.3,-0.6 4.4,0 2.3,1.3 -1.8,1.2 -2.2,1.2 -3.8,0.1 z"
       id="path137" />
    <path
       d="m 136.3,691.3 c 1.5,-1.6 4.5,-3.9 6.6,-5.1 l 3.9,-2.2 1.6,2.5 c 1.5,2.3 2.2,2.5 9.6,2.5 7.3,0 8,0.2 8,2 0,1.9 -0.7,2 -11.4,2 -6.2,0 -13.5,0.3 -16.2,0.6 l -4.9,0.7 z"
       id="path130"
       style="display:inline" />
    <path
       d="m 608,463.2 c 0,-4.9 1.3,-8.2 3.2,-8.2 2.7,0 3.1,-2 1.3,-6.9 -0.8,-2.4 -1.2,-4.7 -0.9,-5.2 0.3,-0.5 2.5,-0.9 5,-0.9 4.4,0 4.4,0 4.4,3.5 0,6.5 -3.8,12.7 -11.2,18.4 -1.6,1.2 -1.8,1.1 -1.8,-0.7 z"
       id="path136"
       style="display:inline" />
    <path
       d="m 322.7,898 c 0.6,-0.8 1.3,-2.8 1.5,-4.5 0.2,-2.6 0.8,-3 3.5,-3.3 2.6,-0.3 3.4,0.2 4.5,2.5 0.7,1.5 2.4,3 3.8,3.4 1.4,0.4 -0.3,0.5 -3.8,0.2 -5.2,-0.5 -6.6,-0.3 -8.5,1.3 -1.2,1.1 -1.7,1.2 -1,0.4 z"
       id="path138" />
    <path
       d="m 657.5,898.1 c -0.6,-0.5 -2.7,-1.4 -4.7,-2.1 -6.3,-1.9 -4.6,-7.2 1.8,-5.6 2,0.5 2.5,1.2 2.1,2.6 -0.3,1.1 -0.2,2 0.3,2 0.4,0 1,0.9 1.3,2 0.6,2.3 0.5,2.4 -0.8,1.1 z"
       id="path139" />
    <path
       d="m 292.3,894.6 c 1.5,-1.5 2.7,-3.1 2.7,-3.6 0,-0.6 1.8,-1 4,-1 3.8,0 4,0.2 4,3 0,2.9 -0.2,3 -4.2,3 -2.4,0 -5.4,0.3 -6.8,0.7 l -2.4,0.6 z"
       id="path140" />
    <path
       d="m 678.2,896.1 c -0.8,-0.4 -1.2,-1.9 -1,-3.2 0.2,-1.8 1,-2.5 3,-2.7 2.3,-0.3 3,0.2 3.8,2.4 0.6,1.5 0.9,2.8 0.8,3 -0.9,0.9 -5.5,1.3 -6.6,0.5 z"
       id="path141" />
    <path
       d="m 630.2,892 c -2.1,-2.2 -4,-3.1 -7.7,-3.6 -2.8,-0.4 -6.1,-1.2 -7.5,-1.9 -2.3,-1.2 -2.1,-1.3 2.9,-1.2 3.6,0.1 5.6,-0.2 5.8,-1 0.3,-0.7 2.1,-1.3 4,-1.3 3.3,0 3.5,0.2 2.9,2.5 -0.6,2.4 1.4,7 3.9,8.7 0.6,0.5 0.5,0.8 -0.3,0.8 -0.7,0 -2.5,-1.3 -4,-3 z"
       id="path142" />
    <path
       d="m 276,891.5 c -0.7,-1.4 -2.2,-2.5 -3.2,-2.5 -1,0 -1.8,-0.4 -1.8,-1 0,-0.5 -0.9,-1 -2,-1 -1.7,0 -1.8,-0.3 -0.8,-2.5 1.1,-2.5 2.5,-2.9 6.6,-1.9 1.6,0.5 2.2,1.4 2.2,3.6 0,1.6 0.5,3.8 1,4.8 0.6,1 0.6,2.1 0.2,2.4 -0.5,0.3 -1.5,-0.6 -2.2,-1.9 z"
       id="path143" />
    <path
       d="m 350,887 c 0,-3.9 0.1,-4 3.4,-4 4.9,0 5.5,3.3 1.1,6 -1.8,1.1 -3.5,2 -3.9,2 -0.3,0 -0.6,-1.8 -0.6,-4 z"
       id="path144" />
    <path
       d="m 704,888.4 c -1.4,-3.5 -1.3,-4.2 0.9,-5.4 3.1,-1.6 5.9,-1.2 6.6,1.1 0.6,1.8 1.2,2 5.8,1.5 l 5.2,-0.7 -3.4,1.6 c -1.8,0.8 -4.5,1.5 -6,1.5 -1.4,0 -3.9,0.7 -5.4,1.5 -2.6,1.4 -2.8,1.3 -3.7,-1.1 z"
       id="path145" />
    <path
       d="m 382.1,887.9 c -4.3,-1.6 -6,-1.8 -8.4,-0.9 -2.2,0.7 -3.4,0.7 -4.4,-0.2 -1.1,-0.9 -0.8,-1.6 1.9,-3.8 2.9,-2.5 3.2,-3.1 2.9,-7.8 -0.2,-4.8 -0.1,-5.2 2.4,-5.8 1.9,-0.5 3.2,-0.1 4.9,1.5 1.2,1.1 2.5,2.1 2.9,2.1 0.3,0 3.1,-2.3 6.2,-5.1 5.7,-5.4 6.6,-7.9 4,-11.3 -0.8,-1.1 -1.5,-2.7 -1.5,-3.7 0,-1.9 4.2,-3.3 7.2,-2.3 2.4,0.7 6.8,-1.4 6.8,-3.2 0,-0.7 0.6,-1.9 1.3,-2.6 1.8,-2 3.7,-5.6 3.7,-7 0,-0.6 -1.4,-2.3 -3.2,-3.8 -2.6,-2.2 -3,-3.1 -2.4,-5.4 0.6,-2.6 0.9,-2.7 4.9,-2.1 5.1,0.8 6,0 8.2,-7.1 2.3,-7.5 2,-9.2 -2,-11.5 -2.7,-1.6 -3.5,-2.7 -3.5,-5 0,-2.5 0.4,-2.9 2.9,-2.9 5.8,0 6.1,-0.5 6.1,-9.5 v -8.2 l -4.2,-0.9 c -3.8,-0.8 -4.3,-1.2 -4.6,-3.9 -0.3,-2.7 0.2,-3.3 3.3,-4.8 4,-1.9 4.1,-2.4 2,-10.3 -2,-7.8 -3,-8.7 -8.1,-8 -3.3,0.4 -4.3,0.2 -4.8,-1 -1.2,-3.1 -0.5,-5 2.4,-6.7 1.7,-1 3,-2.4 3,-3.2 0,-2 -5,-11.2 -7.2,-13.2 -1.8,-1.6 -2.1,-1.6 -5.3,0.1 -2.8,1.6 -3.7,1.7 -5,0.6 -2.1,-1.7 -1.9,-4.2 0.6,-7.4 1.1,-1.5 1.9,-3.3 1.6,-4 -0.8,-1.9 -11.2,-10.6 -12.8,-10.6 -0.8,0 -2,0.9 -2.7,2 -2.8,4.5 -7.5,0.6 -6.5,-5.3 0.7,-4.4 -1,-6.8 -6.9,-9.8 -5,-2.5 -7.3,-2.4 -9.6,0.6 -2.2,2.8 -3.9,3.1 -6.5,1.1 -1.4,-1.1 -1.6,-2.2 -1.1,-5.3 0.6,-3.9 0.6,-3.9 -3.7,-5.3 -2.3,-0.8 -6.5,-1.4 -9.3,-1.5 -4.8,0 -5.2,0.2 -6.5,3.3 -1.6,3.5 -1.8,3.6 -5.5,2.2 -2,-0.7 -2.6,-1.7 -2.6,-3.9 0,-4 -2.3,-5.1 -10.8,-5.1 -7.6,0 -8.2,0.5 -8.2,6 0,2 -0.6,2.9 -2.2,3.4 -3.9,1 -4.5,0.7 -6.1,-3.4 -1.8,-4.7 -2.9,-4.9 -12.2,-1.9 l -6.5,2.2 v 4.2 c 0,3.4 -0.5,4.4 -2.4,5.4 -2.6,1.5 -4.6,0.8 -4.6,-1.5 0,-0.8 -1.1,-1.9 -2.4,-2.5 -2.6,-1.2 -6.3,0.2 -12.3,4.8 -3.6,2.6 -4,4.2 -2.1,7.3 1.1,1.7 0.9,2.4 -1.4,4.7 l -2.7,2.7 -3.5,-1.9 -3.5,-1.9 -4.7,3.2 c -2.5,1.8 -4.7,3.2 -4.9,3 -0.1,-0.2 -2.2,-3.7 -4.5,-7.8 -2.4,-4.1 -5.4,-9.4 -6.7,-11.8 l -2.5,-4.2 -35.5,0.2 -35.6,0.2 -1.8,-2.3 c -2.6,-3.2 -2.4,-4.4 1,-6.4 4.2,-2.5 6.4,-2.1 8.4,1.3 2.4,4.1 5,3.9 14.8,-1 9.4,-4.8 10.8,-6.8 8.5,-12.4 -0.9,-2.1 -1.3,-4.2 -1,-4.7 0.5,-0.9 11.7,-6.9 12.8,-6.9 0.2,0 1.4,1.6 2.6,3.5 2.9,4.7 5.3,4.5 15.7,-1.2 l 8.5,-4.8 -0.5,-6.1 c -0.7,-6.9 -0.3,-7.5 6.9,-11.2 l 4.2,-2.1 3.1,4 c 1.8,2.1 3.9,3.9 4.8,3.9 0.9,0 5.4,-2.1 10,-4.7 9.8,-5.5 11,-8 7.8,-15.5 -0.8,-2 5.2,-6.4 10.2,-7.4 2.8,-0.5 3.6,-0.2 5.9,2.5 1.4,1.7 3.5,3.1 4.6,3.1 2.7,0 18.8,-8.7 19.5,-10.6 0.3,-0.7 -0.2,-3.5 -1.1,-6.1 -0.9,-2.5 -1.6,-4.8 -1.6,-4.9 0,-0.1 3,-1.9 6.7,-3.9 6.2,-3.4 6.9,-3.6 7.8,-2 4.1,7 7,8 12.7,4.4 1.8,-1.1 5.5,-3.4 8.2,-5 l 4.8,-3 -0.4,-4.7 c -0.3,-2.6 -0.7,-5.3 -0.9,-6.1 -0.4,-1.4 10.2,-8.9 12.7,-9 0.6,-0.1 1.7,1.3 2.4,3 0.7,1.7 2.4,3.7 3.7,4.6 2.2,1.4 2.7,1.3 9.3,-2.6 3.8,-2.3 8.2,-5.2 9.6,-6.5 2.6,-2.2 2.7,-2.5 1.6,-6.9 -0.7,-2.5 -1.2,-4.9 -1.2,-5.4 0,-0.4 3,-2.4 6.6,-4.3 l 6.6,-3.5 1.6,2.5 c 1,1.3 2.5,3.2 3.4,4.2 2.1,2.2 4.5,1.4 14.3,-4.5 6.5,-3.9 7,-4.5 7.3,-8.1 0.2,-2.1 -0.1,-4.3 -0.7,-4.9 -2.1,-2.1 -1,-3.6 5.3,-7.1 3.5,-2 6.7,-3.6 6.9,-3.6 0.3,0 1.5,1.6 2.7,3.5 3.3,5.3 5.5,5.3 14.2,0.1 10.7,-6.5 11.5,-7.6 10,-13.3 -0.7,-2.5 -1,-4.8 -0.7,-5.2 0.4,-0.3 3.2,-2 6.3,-3.8 l 5.7,-3.1 3.6,4.1 3.7,4.2 h 20.6 c 12.7,0 20.9,-0.4 21.4,-1 0.4,-0.6 2.5,-2.3 4.7,-3.8 7.8,-5.4 7.6,-5.1 6.9,-9.6 -0.6,-3.5 -1.1,-4.2 -3.9,-5 -1.9,-0.5 -8.9,-0.7 -15.7,-0.4 l -12.3,0.6 0.3,3.6 c 0.3,2.8 -0.1,4.1 -2,5.6 l -2.3,2 1.9,-2.2 c 1.4,-1.7 1.7,-3.1 1.2,-6 -0.3,-2.1 -0.7,-4.7 -0.9,-5.7 -0.1,-1.4 1.3,-2.7 5.6,-5 l 5.7,-3.1 3.3,3.9 c 2.9,3.4 3.7,3.8 6.3,3.2 1.6,-0.5 10.4,-1.2 19.6,-1.6 18.3,-0.9 18.8,-1.1 26.6,-8.4 2.5,-2.3 3.2,-3.8 3.2,-6.6 0,-5.4 -1.2,-6 -12.5,-6 -9.7,0 -10.1,-0.1 -10.2,-2.2 -0.2,-1.9 1.1,-3 6.7,-6.1 8.4,-4.6 12.3,-9.1 13,-14.9 l 0.5,-4.3 5.1,-0.3 c 4.9,-0.3 5.1,-0.2 11.3,5.8 5.5,5.3 6.7,6 10.2,6 4.4,0 4.5,-0.1 2.4,-6 -0.8,-2.3 -1.5,-4.6 -1.5,-5.1 0,-0.5 3.3,-0.9 7.3,-0.9 h 7.2 l 5.9,5.6 c 3.2,3 7.2,5.8 8.8,6.1 1.6,0.3 3.3,1.4 3.9,2.4 0.8,1.6 0.1,2.9 -4.2,7.4 l -5.2,5.5 h -8.2 c -6.3,0 -8.5,0.4 -10.1,1.8 -1,0.9 -3.5,2.9 -5.4,4.4 -1.9,1.5 -5.5,4.5 -8,6.8 -3.6,3.3 -4.2,4.3 -3,5 0.8,0.5 2.1,1 2.8,1 0.6,0 1.2,0.7 1.2,1.5 0,2.7 -4.6,4.5 -13,5.2 -8.2,0.6 -8.4,0.7 -14.2,5.7 -3.3,2.8 -7.5,6.2 -9.3,7.6 -4.3,3.1 -4.4,4.5 -0.2,6 2.9,1 3,1.2 1.5,2.4 -2.9,2.1 -2.2,3.8 1.4,3.4 3,-0.3 3.3,0 3.9,3.2 0.8,3.9 -0.2,5.9 -5.2,9.6 -7,5.3 -10.4,6.4 -18.8,6.4 H 511 l 1,2.6 c 0.6,1.4 1,4.7 1,7.4 0,3.6 2.4,12 8.4,29.7 14.8,43.8 16.5,49.5 15.4,51.3 -0.6,0.9 -3.3,2.3 -6.1,3 -2.7,0.7 -5.8,2.1 -6.8,3.1 -1.9,1.9 -2,1.9 -4.2,-0.3 -2.2,-2.3 -13.5,-33.4 -22.2,-61.5 l -3.8,-12.3 -3.6,0.5 c -2,0.2 -7,0.7 -11.3,1 -5.5,0.5 -8.1,1.2 -9.2,2.4 -1.5,1.6 -1.5,1.9 -0.1,3.1 2.7,2.2 1.9,7.6 -1.7,10.9 -1.8,1.7 -3.5,3.1 -3.8,3.1 -0.8,0 -2.2,-3.9 -8.6,-23.5 -5.3,-16 -6.2,-18 -8.2,-18.3 -2.3,-0.4 -2.3,-0.2 -1.7,5.1 0.8,6.5 -0.7,10 -6.1,13.5 -3.9,2.5 -4.1,4.2 -1.8,11.7 3,9.7 4.4,15.7 3.8,16.6 -0.3,0.5 -1.5,0.9 -2.7,0.9 -1.2,0 -3.2,0.8 -4.5,1.8 -2.2,1.7 -2.2,1.9 -0.8,4.7 3.2,6.2 2.7,7.1 -8.8,14.9 -6.7,4.5 -7,4.6 -14.5,4.6 -9.6,0 -11.8,1.7 -12.3,9.5 -0.3,4.8 -0.4,5 -7.1,9.9 -6.5,4.7 -7.2,5 -15,5.6 -4.5,0.4 -9.3,1.2 -10.7,1.9 -3.6,1.9 -7,5.2 -7,6.8 0,2.2 10,21.4 11.3,21.7 0.7,0.2 17.4,2.5 37.2,5.1 52.2,6.8 70.9,9.5 71.6,10.3 0.3,0.4 3.2,8.6 6.4,18.2 3.1,9.6 6.2,18.3 6.7,19.3 0.7,1.3 0.5,1.7 -0.9,1.7 -1,0.1 -3,1.7 -4.5,3.7 l -2.8,3.6 v 22.3 c 0,21.5 0.1,22.5 2.4,27.6 1.4,3 3.4,7.8 4.6,10.8 1.2,3 3.4,7.9 5,10.8 2.8,5.2 2.9,5.5 1.4,9.3 -0.9,2.1 -2.4,4.1 -3.4,4.4 -2.2,0.7 -4,5.3 -3.3,8.7 0.6,3.3 -3.8,12.1 -7.3,14.5 -5.6,3.8 -7.5,6.2 -6.9,8.6 0.9,3.6 -7.2,10.9 -17.3,15.6 -1.2,0.6 -2.6,2.1 -3.1,3.5 -0.9,2.3 -12.5,9.6 -15.3,9.6 -0.8,0 -3.2,0.9 -5.3,2 -7.7,4 -15.3,6 -22.7,6 -4.4,0.1 -8.3,0.6 -9.8,1.5 -3.5,2 -13.5,1.7 -19.9,-0.6 z"
       id="path146"
       sodipodi:nodetypes="cccccccsccscscscccccsssccscccccscccccsccccccccccsssccccscssccsccccccccccccccccscccccccsccccsccsccccccccsccccsccccccscsccccccccsccccccccccccccccccssccccccscssccscccscsccssccccccccsccscccsccccccccsccccccscccsccccsccccccccscscccccsccscccc" />
    <path
       d="m 790.5,889.3 c -1.1,-0.3 -2.4,-0.9 -2.9,-1.4 -0.6,-0.5 -3.6,-0.9 -6.7,-0.9 -6.5,0 -18,-3.2 -20,-5.6 -1.9,-2.3 -6.6,-4.5 -8.2,-3.8 -0.8,0.3 -3.8,-0.6 -6.6,-2 -2.8,-1.4 -6,-2.6 -7.1,-2.6 -3.2,0 -8,2.8 -9,5.3 -0.9,2 -1,2 -0.8,0.2 0,-1.1 -0.2,-2.8 -0.7,-3.7 -1.6,-3.9 2.7,-7.6 5.1,-4.4 1,1.4 1.7,1.5 3.3,0.7 1.1,-0.6 3,-1.1 4.3,-1.2 2.4,0 8.8,-6.9 8.8,-9.5 0,-0.8 -0.9,-2.3 -2,-3.4 -4.3,-4.3 -1.5,-7.4 5.7,-6.5 l 4.8,0.7 3.8,-6.6 c 2,-3.6 3.7,-6.9 3.7,-7.3 0,-0.4 -1.4,-2 -3.1,-3.4 -2.6,-2.1 -3.1,-3.1 -2.5,-5.2 0.6,-2.4 1.1,-2.7 4.6,-2.7 4.6,0 6,-1.6 8,-9.2 1.6,-5.9 1,-7.5 -3.6,-9.4 -3,-1.2 -3.5,-1.9 -3,-3.7 0.3,-1.2 0.6,-2.5 0.6,-2.9 0,-0.5 1.5,-0.8 3.3,-0.8 4.8,0 5.7,-1.5 5.7,-9.5 0,-8.2 -0.9,-9.5 -6.2,-9.5 -3.5,0 -3.8,-0.2 -3.8,-2.8 0,-3.2 1.6,-5.2 4.1,-5.2 3.3,0 4.2,-2.5 2.9,-8.6 -2,-9.7 -2.8,-10.7 -7.2,-10 -3.4,0.6 -4,0.4 -5,-2 -1.1,-2.4 -1,-2.8 1.5,-4.6 3.6,-2.6 3.4,-4.5 -0.9,-11.9 l -3.6,-6.1 -4,0.6 c -4.5,0.7 -6.8,-0.5 -6.8,-3.6 0,-1 0.7,-2.1 1.5,-2.4 2.6,-1 1.7,-5.2 -2,-9.3 -4.8,-5.3 -8.7,-6.9 -12,-4.7 -3.2,2.1 -4.1,2 -6.5,-0.4 -2.1,-2.1 -2.6,-4 -1.1,-4 1.3,0 1.9,-4.6 0.9,-6.4 -0.5,-0.9 -1.6,-1.6 -2.4,-1.6 -0.9,0 -2.7,-0.9 -4.1,-2 -3.7,-2.9 -9,-2.7 -10.5,0.5 -1.2,2.8 -2,3 -4.9,1.5 -1.4,-0.8 -1.9,-2.1 -1.9,-4.9 0,-4.6 -0.8,-5.3 -8.1,-7.6 -7.1,-2.1 -8.8,-1.8 -10.8,2.3 -1.4,2.8 -2,3.2 -5.1,3 -2.6,-0.2 -3.6,-0.8 -3.8,-2.3 -1,-6.8 -0.6,-6.5 -9.2,-6.5 -8.4,0 -8.9,0.3 -9.9,5.4 -0.6,2.7 -1.1,3.1 -4.4,3.4 -2.9,0.3 -3.7,0 -3.7,-1.3 0,-3.5 -2.8,-4.8 -8.5,-4.1 -8.8,1 -10.5,2.2 -10.5,7.2 0,3.3 -0.5,4.6 -1.9,5.4 -2.8,1.4 -5.1,1.2 -5.1,-0.4 0,-0.8 -0.6,-1.6 -1.2,-1.8 -0.8,-0.3 -0.4,-0.9 1,-1.7 2,-1 2.2,-1.9 2.2,-8.6 0,-4.4 -0.6,-9 -1.6,-11.4 -0.9,-2.3 -1.4,-6 -1.2,-9.2 l 0.3,-5.4 h 69.9 69.8 l 16.2,31.6 c 8.8,17.3 16.9,32.7 17.8,34.1 1.4,2.1 2.7,2.7 7.5,3.1 6,0.6 14.1,2.1 14.8,2.8 0.2,0.3 1.1,6.1 1.9,12.9 1.7,13 3.3,24.5 4.2,29.3 l 0.6,2.7 h 62.4 62.4 l -0.1,2.8 c -0.2,2.3 -0.2,2.4 -0.6,0.5 l -0.4,-2.3 h -50.4 c -37.5,0 -50.6,0.3 -51.1,1.2 -0.4,0.6 -0.6,3.8 -0.5,7 0.3,6.8 -0.5,9.8 -2.5,9.8 -1.1,0 -1.4,1.9 -1.4,9.6 0,9.2 0.1,9.7 2.9,12.5 2.5,2.4 3.7,2.9 8.1,2.9 4.1,0 5.6,-0.5 7.5,-2.5 3,-2.9 3.2,-5.5 0.5,-5.5 -1.1,0 -2,0.6 -2,1.4 0,2.9 -7.8,3.6 -10.4,1 -1.2,-1.1 -1.6,-3.6 -1.6,-9.3 v -7.8 l 12.8,-0.6 c 16.6,-0.9 41.7,-0.9 40.9,0 -0.4,0.3 0,1.7 0.9,3.1 1.4,2.1 1.4,3.3 0.4,8.6 -1.4,7.3 -2.4,9.3 -4.8,10.1 -2.5,0.7 -4.3,4.9 -3.6,8.3 0.9,4.4 -4.7,14.8 -8.9,16.5 -4.2,1.8 -6.1,4.2 -5.4,6.9 0.7,2.8 0.5,3.1 -6.1,9 -3,2.7 -5.9,4.5 -6.7,4.2 -2,-0.8 -7.5,3.4 -7.5,5.6 0,3.8 -8.5,8.4 -17.5,9.4 -3.7,0.5 -5.6,1.3 -7.6,3.5 -2.9,3.2 -11.7,5.7 -17.2,4.8 -1.7,-0.2 -5.3,0.4 -8.1,1.4 -4.8,1.8 -14.2,2.4 -19.1,1.2 z"
       id="path147" />
    <path
       d="m 251,878.8 c 0,-0.9 -1.3,-2.6 -3,-3.8 -2.6,-1.8 -2.8,-2.3 -1.8,-4.5 1.3,-2.9 3,-3.2 5.8,-0.8 1.6,1.4 1.9,2.5 1.4,5.3 -0.7,3.8 -2.4,6.5 -2.4,3.8 z"
       id="path148" />
    <path
       d="m 601.1,874.6 c -2,-2.1 -2.2,-2.8 -1.1,-4.1 2.7,-3.3 7.5,-0.7 6.8,3.7 -0.4,3.2 -2.9,3.3 -5.7,0.4 z"
       id="path149" />
    <path
       d="m 589.3,867.9 c -3.9,-3.8 -5.3,-5.9 -5.3,-8 0,-1.5 -0.5,-3.1 -1,-3.4 -1.3,-0.8 -0.3,-2.5 1.6,-2.5 1,0 1.4,1.2 1.4,4.4 0,4 0.4,4.8 5.6,9.5 3,2.8 4.9,5.1 4.2,5.1 -0.7,0 -3.7,-2.3 -6.5,-5.1 z"
       id="path150" />
    <path
       d="m 229.7,855.8 c -1.2,-2.4 -2.6,-3.8 -3.7,-3.8 -1,0 -2.2,-0.4 -2.5,-1 -0.3,-0.6 0.4,-1 1.7,-1 1.3,0 3.2,-0.3 4.3,-0.6 3.2,-0.8 5.2,3.6 3.4,7.4 l -1.4,2.9 z"
       id="path151" />
    <path
       d="m 215.2,831.6 c -0.6,-2.2 -1,-4.1 -0.9,-4.2 0.1,-0.1 1.4,-0.4 3,-0.8 2.5,-0.6 2.7,-0.4 2.7,2.7 0,1.9 -0.7,3.9 -1.8,4.8 -1.8,1.5 -1.9,1.3 -3,-2.5 z"
       id="path152" />
    <path
       d="m 567.8,830.5 c -1.5,-3.3 -1.5,-3.3 1.5,-3.9 3.6,-0.7 4.7,-0.1 4.7,2.8 0,1.4 -0.9,2.7 -2.3,3.3 -2.1,1 -2.5,0.8 -3.9,-2.2 z"
       id="path153" />
    <path
       d="m 938.1,817.6 c -0.9,-1.1 -0.6,-2 1.4,-4 2.5,-2.5 2.6,-3.2 2.3,-10.4 -0.3,-7.7 -0.3,-7.8 2,-7.4 2.3,0.5 2.4,0.7 2,9.3 -0.3,7.6 -0.6,9.1 -2.7,11.3 -2.8,3 -3.4,3.1 -5,1.2 z"
       id="path154" />
    <path
       d="m 206.1,813.3 c -0.1,-1.7 0.4,-3.5 1,-3.8 0.6,-0.4 0.9,-2.6 0.7,-4.9 -0.3,-4 -0.2,-4.1 3,-4.4 2.2,-0.2 3.4,0.2 3.8,1.3 1,2.4 -1.3,6.5 -3.5,6.5 -2.3,0 -3.1,1.1 -4.2,5.4 l -0.7,3.1 z"
       id="path155" />
    <path
       d="m 559.6,811.8 c 0.4,-3.2 0.7,-3.1 -10.3,-2.9 -7,0.1 -8.2,-0.1 -7.7,-1.4 0.4,-0.8 1.7,-1.5 3,-1.5 h 2.3 l -0.2,-14.2 c -0.1,-7.9 -0.1,-26.1 0.1,-40.5 L 547,725 h 4.3 c 8.2,0 8.7,-0.4 8.7,-7.5 v -6.3 l -5.2,-0.4 c -2.9,-0.2 -9.7,-0.2 -15,0 -7.5,0.3 -9.8,0.8 -9.8,1.8 0,1 1.2,1.4 3.9,1.4 6.8,0 7.1,0.4 7.1,8.6 0,7.2 -0.1,7.4 -2.5,7.4 -2.4,0 -2.5,-0.3 -2.5,-6 0,-6.9 -0.7,-7.4 -9.6,-6.8 -4.9,0.3 -4.9,0.3 -5.2,4.1 l -0.3,3.8 -7.7,-0.3 -7.6,-0.3 -6.1,-18.2 C 496.2,696.2 493.7,688 494,688 c 0.3,0 10.2,1.3 22,2.9 11.8,1.7 25.3,3.3 30,3.6 4.7,0.4 9.6,1 11,1.5 1.4,0.5 11.5,2.1 22.5,3.6 26.7,3.5 30.8,5.3 25.6,11.2 -2.2,2.6 -3.4,2.7 -5.1,0.7 -2.3,-2.7 -6.2,-1.7 -11.2,2.9 -5.3,4.8 -5.8,6.4 -2.8,9.1 4.3,3.9 1.8,6.9 -5.9,7 -4.1,0 -4.7,0.3 -7.2,4 -1.5,2.2 -3,5.4 -3.3,7.2 -0.6,2.6 -0.3,3.5 1.9,5.6 3.8,3.4 2.7,6.7 -2.1,6.7 -5,0 -8.1,3.7 -9,10.6 -0.8,6.7 -0.2,8.2 3.3,8.6 2.5,0.3 2.8,0.7 2.8,3.8 0,2.7 -0.4,3.5 -2,3.8 -6.4,0.9 -6.2,0.7 -6.9,8.6 -0.8,8.9 0.6,11.6 6.1,11.6 2.6,0 3.4,0.5 3.9,2.4 0.7,3 -0.1,4.6 -2.4,4.6 -1.8,0 -4.6,2.7 -5.5,5.2 -0.2,0.7 -0.3,0.1 -0.1,-1.4 z"
       id="path156" />
    <path
       d="m 928,809.4 c 0,-1.9 -0.4,-2.5 -1.5,-2 -1.2,0.4 -1.5,-0.5 -1.5,-5.4 0,-5.3 0.2,-6 2,-6 1.8,0 2,0.7 2,8 0,4.4 -0.2,8 -0.5,8 -0.3,0 -0.5,-1.2 -0.5,-2.6 z"
       id="path157" />
    <path
       d="m 205.8,781.7 c 0.5,-0.6 1.3,-3.1 1.7,-5.4 0.8,-4.9 0.6,-4.7 4,-3.1 4.8,2.2 2.6,8.1 -3.4,9.2 -2.6,0.5 -3.1,0.3 -2.3,-0.7 z"
       id="path158" />
    <path
       d="m 216.1,755.1 c -0.8,-0.5 -2.1,-0.7 -3,-0.3 -1.5,0.5 -1.5,0.4 0,-1.4 0.8,-1 2,-3.2 2.7,-4.7 1.2,-2.8 1.2,-2.8 3.3,-0.8 3.8,3.5 1.2,9.9 -3,7.2 z"
       id="path159" />
    <path
       d="m 229,731.1 c 0,-0.5 -0.7,-1.1 -1.5,-1.3 -1.1,-0.2 -0.9,-1.1 1.2,-3.8 1.6,-1.9 2.6,-4.4 2.5,-5.6 -0.2,-1.2 0.2,-2.5 0.7,-2.9 0.7,-0.4 1.1,1.3 1.1,4.9 0,3.4 0.5,5.6 1.2,5.8 0.9,0.3 0.8,0.9 -0.4,2.1 -1.8,1.8 -4.8,2.3 -4.8,0.8 z"
       id="path160" />
    <path
       d="m 858,610.8 c 0,-7.6 1.4,-15.8 2.6,-15.8 1.1,0 1.4,2.1 1.4,9 0,8.3 -0.1,9 -2,9 -1.4,0 -2,-0.7 -2,-2.2 z"
       id="path161" />
    <path
       d="m 882,611.8 c -0.5,-11.2 -0.4,-16.8 0.3,-16.8 0.4,0 0.7,4.1 0.7,9 0,5 -0.2,9 -0.5,9 -0.3,0 -0.5,-0.6 -0.5,-1.2 z"
       id="path162" />
    <path
       d="m 853.4,603.5 c 0,-4.9 0.1,-7.1 0.3,-4.8 0.2,2.3 0.2,6.4 0,9 -0.2,2.6 -0.3,0.8 -0.3,-4.2 z"
       id="path163" />
    <path
       d="m 880.8,590.8 c 0.6,-0.7 1.2,-2.9 1.5,-4.8 0.4,-3.4 0.4,-3.4 0.5,0.6 0.2,3.1 -0.2,4.4 -1.4,4.8 -1.3,0.5 -1.4,0.3 -0.6,-0.6 z"
       id="path164" />
    <path
       d="m 838.4,577.5 0.1,-8 9.8,-0.1 h 9.7 l -9.5,0.3 -9.4,0.4 -0.4,7.7 -0.3,7.7 z"
       id="path165" />
    <path
       d="M 644,569.5 V 563 h 9.4 c 10.1,0 10.8,0.4 9.9,5.3 l -0.5,2.7 h 43.7 43.8 l -0.7,-4 -0.6,-4 h 6 c 5.7,0 6,0.1 6.6,2.8 0.3,1.5 0.7,3.3 1,4 0.2,0.9 3.4,1.2 11.3,1.2 9.4,0 11,0.2 10.5,1.5 -0.4,1 0,1.5 1.6,1.5 1.1,0 1.8,0.5 1.5,1 -0.4,0.7 -25.5,1 -72.1,1 H 644 Z"
       id="path166" />
    <path
       d="m 799.7,555.1 c -1.5,-4.7 -4.7,-15.5 -7.1,-23.9 -2.4,-8.4 -5,-16 -5.7,-16.8 -1.1,-1.4 -0.9,-1.5 1.6,-1.2 2.9,0.3 3.1,0.7 7.6,15.8 2.6,8.5 5.8,19.6 7.2,24.7 2.3,8.5 2.4,9.1 0.8,9.6 -1.5,0.3 -2.3,-1.2 -4.4,-8.2 z"
       id="path167" />
    <path
       d="m 644.6,558.9 c 1.2,-1.5 4.1,-10.8 7.3,-23.9 1.2,-4.7 3.2,-12.3 4.5,-17 l 2.3,-8.5 65.9,-0.1 c 36.2,0 63,0.2 59.4,0.5 -4.9,0.5 -6.5,1 -6.5,2.1 0,1.3 -2.4,1.5 -14.2,1.8 -10.5,0.2 -14.3,0.6 -14.3,1.5 0,0.6 2.3,10.4 5,21.6 2.8,11.1 5,20.7 5,21.1 0,0.4 -2.5,0.8 -5.5,0.9 h -5.4 l -1,-3.7 c -3.2,-12.1 -8.1,-32.2 -8.7,-35.4 -0.3,-2.1 -1.2,-4.2 -1.9,-4.8 -0.8,-0.7 -11.3,-0.9 -31.1,-0.8 l -29.8,0.3 -4.1,17.5 c -2.3,9.6 -4.8,19.5 -5.6,22 l -1.4,4.5 -9.2,0.1 c -5,0.1 -9.7,0.5 -10.5,1 -1,0.6 -1,0.5 -0.2,-0.7 z"
       id="path168" />
    <path
       d="m 787.6,515.4 c -0.4,-1 -2.4,-1.4 -7.1,-1.4 -6.3,0 -6.5,-0.1 -6.5,-2.5 0,-2.5 0.1,-2.5 7.9,-2.5 8.4,0 8.5,0 9.5,4.1 0.4,2.1 0.2,2.8 -1.3,3.2 -1.2,0.3 -2.2,-0.1 -2.5,-0.9 z"
       id="path135"
       style="display:inline" />
  </g>
</svg>
